<svg xmlns="http://www.w3.org/2000/svg" xmlns:xlink="http://www.w3.org/1999/xlink" width="512" height="512" viewBox="0 0 512 512">
  <defs>
    <linearGradient id="linear-gradient" x1="0.5" y1="0.205" x2="0.5" y2="0.849" gradientUnits="objectBoundingBox">
      <stop offset="0" stop-color="#d42810"/>
      <stop offset="1" stop-color="#d42810"/>
    </linearGradient>
    <filter id="Path-3" x="87.768" y="141.112" width="296.016" height="248.4" filterUnits="userSpaceOnUse">
      <feOffset dy="3" input="SourceAlpha"/>
      <feGaussianBlur stdDeviation="3" result="blur"/>
      <feFlood flood-color="#6d2400" flood-opacity="0.141"/>
      <feComposite operator="in" in2="blur"/>
      <feComposite in="SourceGraphic"/>
    </filter>
    <clipPath id="clip-Telegram-春节版-foreground">
      <rect width="512" height="512"/>
    </clipPath>
  </defs>
  <g id="Telegram-春节版-foreground" clip-path="url(#clip-Telegram-春节版-foreground)">
    <rect width="512" height="512" fill="rgba(255,255,255,0)"/>
    <g id="组_1" data-name="组 1" transform="translate(1 664)">
      <g id="纹" transform="translate(-30 -679)">
        <path id="传统纹饰" d="M134.932,64.22H93.509L64.22,93.509v41.422L93.509,164.22h41.422l29.289-29.289V93.509Zm24.427,29.151H148.93V82.941ZM146.928,80.938V93.371h-7.1V88.1h-4.486V80.916H146.9Zm0,52.129h-7.1v-4.529h2.787V121.57h2.744V115.3H130.9v-2.156H145.36v-6.271h-2.744V99.9h-2.787V95.375h7.1Zm-13.588,0v5.269h-4.366V130.89h2.8v-2.357h6.053v4.535Zm4.486,2v3.266h-2.482V135.07ZM93.1,138.336H90.616V135.07H93.1ZM81.513,114.221V95.374h7.1V99.9H85.825v6.968H83.081v6.271H97.54V115.3H83.081v6.271h2.744v6.968h2.787v4.529h-7.1Zm7,12.309v.006h-.686v-6.968H85.085V117.3H99.545V111.14H85.085v-2.265h2.744v-6.968h.686v.006h8.155V107H92.053v-1.7h-2v3.7H101.9v10.429H90.05v3.7h2v-1.7h4.616v5.09H88.515ZM95.1,95.374V90.1h4.366v7.447h-2.8v2.357H90.616V95.374Zm-4.486-2V90.1H93.1v3.266ZM135.343,90.1h2.482v3.266h-2.482Zm2.482,5.269v4.535h-6.053V97.551h-2.8V90.1h4.366v5.269Zm-16.332,6.619V99.555h8.274V107h-3.223v-5.008Zm-7.273,27.154h-3.31V142.3h-3.353v-1.263h-6.1v-2.156h.011V130.89h5.477v4.921H104.9v2h4.05V126.448H119.49v11.367h4.05v-2h-2.047v-4.921h5.477v7.992h.011v2.156h-6.1V142.3h-3.353V129.148Zm-7.273-2.7v2.439H98.674V121.44H101.9v5.008Zm7.273-27.154h3.31V86.141h3.353V87.4h6.1V89.56h-.011v7.992h-5.477V92.63h2.047v-2h-4.05v11.367H108.951V90.627H104.9v2h2.047v4.921h-5.477V89.56h-.011V87.4h6.1V86.141h3.353V99.293Zm-7.273.261v2.439H101.9V107H98.674V99.555Zm0,4.442v3H103.9v-3ZM103.9,121.438h3.048v3H103.9Zm17.595,7.448v-2.439h5.052V121.44h3.223v7.447Zm0-4.442v-3h3.048v3Zm3.05-5.009h-5.052v5.008h-10.54v-5.008H103.9V109.006h5.052V104H119.49v5.008h5.052v10.429Zm0-12.433h-3.048v-3h3.048Zm8.8-18.9h-4.355V85.4h-8.1V84.137h-5.358V97.29h-2.613V84.137h-5.356V85.4h-8.1v2.7H95.1V80.915H133.34ZM90.616,133.067v-4.535h6.053v2.357h2.8v7.447H95.1v-5.269ZM95.1,140.34h4.355v2.7h8.1V144.3h5.356V131.151h2.614V144.3h5.357v-1.263h8.1v-2.7h4.355v7.186H95.1V140.34Zm36.67-13.811v-5.09h4.616v1.7h2v-3.7H126.546V109.006h11.846v-3.7h-2V107h-4.616v-5.09h8.155v-.006h.686v6.968h2.744v2.265H128.9V117.3h14.459v2.265h-2.744v6.968h-.686v-.006h-8.156ZM144.9,78.912h-9.558V69.353ZM133.34,67.559V78.912H95.1V67.559ZM93.1,69.354v9.558H83.54ZM81.537,80.915H93.1V88.1H88.613V93.37h-7.1V80.938ZM79.51,82.941V93.371H69.081ZM67.559,95.374H79.51v37.693H67.559Zm1.523,39.7H79.511V145.5ZM81.513,147.5V135.07h7.1v5.269H93.1v7.186H81.537Zm2.027,2.027H93.1v9.558ZM95.1,160.882V149.53H133.34v11.353Zm40.241-1.8v-9.558H144.9Zm11.562-11.56H135.343v-7.186h4.486v-5.269h7.1V147.5Zm2.027-2.027V135.07H159.36Zm11.951-12.433H148.931V95.374h11.951Z" transform="translate(-35.22 343.78)" fill="url(#linear-gradient)"/>
        <path id="传统纹饰-2" data-name="传统纹饰" d="M134.932,64.22H93.509L64.22,93.509v41.422L93.509,164.22h41.422l29.289-29.289V93.509Zm24.427,29.151H148.93V82.941ZM146.928,80.938V93.371h-7.1V88.1h-4.486V80.916H146.9Zm0,52.129h-7.1v-4.529h2.787V121.57h2.744V115.3H130.9v-2.156H145.36v-6.271h-2.744V99.9h-2.787V95.375h7.1Zm-13.588,0v5.269h-4.366V130.89h2.8v-2.357h6.053v4.535Zm4.486,2v3.266h-2.482V135.07ZM93.1,138.336H90.616V135.07H93.1ZM81.513,114.221V95.374h7.1V99.9H85.825v6.968H83.081v6.271H97.54V115.3H83.081v6.271h2.744v6.968h2.787v4.529h-7.1Zm7,12.309v.006h-.686v-6.968H85.085V117.3H99.545V111.14H85.085v-2.265h2.744v-6.968h.686v.006h8.155V107H92.053v-1.7h-2v3.7H101.9v10.429H90.05v3.7h2v-1.7h4.616v5.09H88.515ZM95.1,95.374V90.1h4.366v7.447h-2.8v2.357H90.616V95.374Zm-4.486-2V90.1H93.1v3.266ZM135.343,90.1h2.482v3.266h-2.482Zm2.482,5.269v4.535h-6.053V97.551h-2.8V90.1h4.366v5.269Zm-16.332,6.619V99.555h8.274V107h-3.223v-5.008Zm-7.273,27.154h-3.31V142.3h-3.353v-1.263h-6.1v-2.156h.011V130.89h5.477v4.921H104.9v2h4.05V126.448H119.49v11.367h4.05v-2h-2.047v-4.921h5.477v7.992h.011v2.156h-6.1V142.3h-3.353V129.148Zm-7.273-2.7v2.439H98.674V121.44H101.9v5.008Zm7.273-27.154h3.31V86.141h3.353V87.4h6.1V89.56h-.011v7.992h-5.477V92.63h2.047v-2h-4.05v11.367H108.951V90.627H104.9v2h2.047v4.921h-5.477V89.56h-.011V87.4h6.1V86.141h3.353V99.293Zm-7.273.261v2.439H101.9V107H98.674V99.555Zm0,4.442v3H103.9v-3ZM103.9,121.438h3.048v3H103.9Zm17.595,7.448v-2.439h5.052V121.44h3.223v7.447Zm0-4.442v-3h3.048v3Zm3.05-5.009h-5.052v5.008h-10.54v-5.008H103.9V109.006h5.052V104H119.49v5.008h5.052v10.429Zm0-12.433h-3.048v-3h3.048Zm8.8-18.9h-4.355V85.4h-8.1V84.137h-5.358V97.29h-2.613V84.137h-5.356V85.4h-8.1v2.7H95.1V80.915H133.34ZM90.616,133.067v-4.535h6.053v2.357h2.8v7.447H95.1v-5.269ZM95.1,140.34h4.355v2.7h8.1V144.3h5.356V131.151h2.614V144.3h5.357v-1.263h8.1v-2.7h4.355v7.186H95.1V140.34Zm36.67-13.811v-5.09h4.616v1.7h2v-3.7H126.546V109.006h11.846v-3.7h-2V107h-4.616v-5.09h8.155v-.006h.686v6.968h2.744v2.265H128.9V117.3h14.459v2.265h-2.744v6.968h-.686v-.006h-8.156ZM144.9,78.912h-9.558V69.353ZM133.34,67.559V78.912H95.1V67.559ZM93.1,69.354v9.558H83.54ZM81.537,80.915H93.1V88.1H88.613V93.37h-7.1V80.938ZM79.51,82.941V93.371H69.081ZM67.559,95.374H79.51v37.693H67.559Zm1.523,39.7H79.511V145.5ZM81.513,147.5V135.07h7.1v5.269H93.1v7.186H81.537Zm2.027,2.027H93.1v9.558ZM95.1,160.882V149.53H133.34v11.353Zm40.241-1.8v-9.558H144.9Zm11.562-11.56H135.343v-7.186h4.486v-5.269h7.1V147.5Zm2.027-2.027V135.07H159.36Zm11.951-12.433H148.931V95.374h11.951Z" transform="translate(102.08 343.78)" fill="url(#linear-gradient)"/>
        <path id="传统纹饰-3" data-name="传统纹饰" d="M134.932,64.22H93.509L64.22,93.509v41.422L93.509,164.22h41.422l29.289-29.289V93.509Zm24.427,29.151H148.93V82.941ZM146.928,80.938V93.371h-7.1V88.1h-4.486V80.916H146.9Zm0,52.129h-7.1v-4.529h2.787V121.57h2.744V115.3H130.9v-2.156H145.36v-6.271h-2.744V99.9h-2.787V95.375h7.1Zm-13.588,0v5.269h-4.366V130.89h2.8v-2.357h6.053v4.535Zm4.486,2v3.266h-2.482V135.07ZM93.1,138.336H90.616V135.07H93.1ZM81.513,114.221V95.374h7.1V99.9H85.825v6.968H83.081v6.271H97.54V115.3H83.081v6.271h2.744v6.968h2.787v4.529h-7.1Zm7,12.309v.006h-.686v-6.968H85.085V117.3H99.545V111.14H85.085v-2.265h2.744v-6.968h.686v.006h8.155V107H92.053v-1.7h-2v3.7H101.9v10.429H90.05v3.7h2v-1.7h4.616v5.09H88.515ZM95.1,95.374V90.1h4.366v7.447h-2.8v2.357H90.616V95.374Zm-4.486-2V90.1H93.1v3.266ZM135.343,90.1h2.482v3.266h-2.482Zm2.482,5.269v4.535h-6.053V97.551h-2.8V90.1h4.366v5.269Zm-16.332,6.619V99.555h8.274V107h-3.223v-5.008Zm-7.273,27.154h-3.31V142.3h-3.353v-1.263h-6.1v-2.156h.011V130.89h5.477v4.921H104.9v2h4.05V126.448H119.49v11.367h4.05v-2h-2.047v-4.921h5.477v7.992h.011v2.156h-6.1V142.3h-3.353V129.148Zm-7.273-2.7v2.439H98.674V121.44H101.9v5.008Zm7.273-27.154h3.31V86.141h3.353V87.4h6.1V89.56h-.011v7.992h-5.477V92.63h2.047v-2h-4.05v11.367H108.951V90.627H104.9v2h2.047v4.921h-5.477V89.56h-.011V87.4h6.1V86.141h3.353V99.293Zm-7.273.261v2.439H101.9V107H98.674V99.555Zm0,4.442v3H103.9v-3ZM103.9,121.438h3.048v3H103.9Zm17.595,7.448v-2.439h5.052V121.44h3.223v7.447Zm0-4.442v-3h3.048v3Zm3.05-5.009h-5.052v5.008h-10.54v-5.008H103.9V109.006h5.052V104H119.49v5.008h5.052v10.429Zm0-12.433h-3.048v-3h3.048Zm8.8-18.9h-4.355V85.4h-8.1V84.137h-5.358V97.29h-2.613V84.137h-5.356V85.4h-8.1v2.7H95.1V80.915H133.34ZM90.616,133.067v-4.535h6.053v2.357h2.8v7.447H95.1v-5.269ZM95.1,140.34h4.355v2.7h8.1V144.3h5.356V131.151h2.614V144.3h5.357v-1.263h8.1v-2.7h4.355v7.186H95.1V140.34Zm36.67-13.811v-5.09h4.616v1.7h2v-3.7H126.546V109.006h11.846v-3.7h-2V107h-4.616v-5.09h8.155v-.006h.686v6.968h2.744v2.265H128.9V117.3h14.459v2.265h-2.744v6.968h-.686v-.006h-8.156ZM144.9,78.912h-9.558V69.353ZM133.34,67.559V78.912H95.1V67.559ZM93.1,69.354v9.558H83.54ZM81.537,80.915H93.1V88.1H88.613V93.37h-7.1V80.938ZM79.51,82.941V93.371H69.081ZM67.559,95.374H79.51v37.693H67.559Zm1.523,39.7H79.511V145.5ZM81.513,147.5V135.07h7.1v5.269H93.1v7.186H81.537Zm2.027,2.027H93.1v9.558ZM95.1,160.882V149.53H133.34v11.353Zm40.241-1.8v-9.558H144.9Zm11.562-11.56H135.343v-7.186h4.486v-5.269h7.1V147.5Zm2.027-2.027V135.07H159.36Zm11.951-12.433H148.931V95.374h11.951Z" transform="translate(376.68 343.78)" fill="url(#linear-gradient)"/>
        <path id="传统纹饰-4" data-name="传统纹饰" d="M134.932,64.22H93.509L64.22,93.509v41.422L93.509,164.22h41.422l29.289-29.289V93.509Zm24.427,29.151H148.93V82.941ZM146.928,80.938V93.371h-7.1V88.1h-4.486V80.916H146.9Zm0,52.129h-7.1v-4.529h2.787V121.57h2.744V115.3H130.9v-2.156H145.36v-6.271h-2.744V99.9h-2.787V95.375h7.1Zm-13.588,0v5.269h-4.366V130.89h2.8v-2.357h6.053v4.535Zm4.486,2v3.266h-2.482V135.07ZM93.1,138.336H90.616V135.07H93.1ZM81.513,114.221V95.374h7.1V99.9H85.825v6.968H83.081v6.271H97.54V115.3H83.081v6.271h2.744v6.968h2.787v4.529h-7.1Zm7,12.309v.006h-.686v-6.968H85.085V117.3H99.545V111.14H85.085v-2.265h2.744v-6.968h.686v.006h8.155V107H92.053v-1.7h-2v3.7H101.9v10.429H90.05v3.7h2v-1.7h4.616v5.09H88.515ZM95.1,95.374V90.1h4.366v7.447h-2.8v2.357H90.616V95.374Zm-4.486-2V90.1H93.1v3.266ZM135.343,90.1h2.482v3.266h-2.482Zm2.482,5.269v4.535h-6.053V97.551h-2.8V90.1h4.366v5.269Zm-16.332,6.619V99.555h8.274V107h-3.223v-5.008Zm-7.273,27.154h-3.31V142.3h-3.353v-1.263h-6.1v-2.156h.011V130.89h5.477v4.921H104.9v2h4.05V126.448H119.49v11.367h4.05v-2h-2.047v-4.921h5.477v7.992h.011v2.156h-6.1V142.3h-3.353V129.148Zm-7.273-2.7v2.439H98.674V121.44H101.9v5.008Zm7.273-27.154h3.31V86.141h3.353V87.4h6.1V89.56h-.011v7.992h-5.477V92.63h2.047v-2h-4.05v11.367H108.951V90.627H104.9v2h2.047v4.921h-5.477V89.56h-.011V87.4h6.1V86.141h3.353V99.293Zm-7.273.261v2.439H101.9V107H98.674V99.555Zm0,4.442v3H103.9v-3ZM103.9,121.438h3.048v3H103.9Zm17.595,7.448v-2.439h5.052V121.44h3.223v7.447Zm0-4.442v-3h3.048v3Zm3.05-5.009h-5.052v5.008h-10.54v-5.008H103.9V109.006h5.052V104H119.49v5.008h5.052v10.429Zm0-12.433h-3.048v-3h3.048Zm8.8-18.9h-4.355V85.4h-8.1V84.137h-5.358V97.29h-2.613V84.137h-5.356V85.4h-8.1v2.7H95.1V80.915H133.34ZM90.616,133.067v-4.535h6.053v2.357h2.8v7.447H95.1v-5.269ZM95.1,140.34h4.355v2.7h8.1V144.3h5.356V131.151h2.614V144.3h5.357v-1.263h8.1v-2.7h4.355v7.186H95.1V140.34Zm36.67-13.811v-5.09h4.616v1.7h2v-3.7H126.546V109.006h11.846v-3.7h-2V107h-4.616v-5.09h8.155v-.006h.686v6.968h2.744v2.265H128.9V117.3h14.459v2.265h-2.744v6.968h-.686v-.006h-8.156ZM144.9,78.912h-9.558V69.353ZM133.34,67.559V78.912H95.1V67.559ZM93.1,69.354v9.558H83.54ZM81.537,80.915H93.1V88.1H88.613V93.37h-7.1V80.938ZM79.51,82.941V93.371H69.081ZM67.559,95.374H79.51v37.693H67.559Zm1.523,39.7H79.511V145.5ZM81.513,147.5V135.07h7.1v5.269H93.1v7.186H81.537Zm2.027,2.027H93.1v9.558ZM95.1,160.882V149.53H133.34v11.353Zm40.241-1.8v-9.558H144.9Zm11.562-11.56H135.343v-7.186h4.486v-5.269h7.1V147.5Zm2.027-2.027V135.07H159.36Zm11.951-12.433H148.931V95.374h11.951Z" transform="translate(239.38 343.78)" fill="url(#linear-gradient)"/>
      </g>
      <g id="纹-2" data-name="纹" transform="translate(-98.15 -771)">
        <path id="传统纹饰-5" data-name="传统纹饰" d="M134.932,64.22H93.509L64.22,93.509v41.422L93.509,164.22h41.422l29.289-29.289V93.509Zm24.427,29.151H148.93V82.941ZM146.928,80.938V93.371h-7.1V88.1h-4.486V80.916H146.9Zm0,52.129h-7.1v-4.529h2.787V121.57h2.744V115.3H130.9v-2.156H145.36v-6.271h-2.744V99.9h-2.787V95.375h7.1Zm-13.588,0v5.269h-4.366V130.89h2.8v-2.357h6.053v4.535Zm4.486,2v3.266h-2.482V135.07ZM93.1,138.336H90.616V135.07H93.1ZM81.513,114.221V95.374h7.1V99.9H85.825v6.968H83.081v6.271H97.54V115.3H83.081v6.271h2.744v6.968h2.787v4.529h-7.1Zm7,12.309v.006h-.686v-6.968H85.085V117.3H99.545V111.14H85.085v-2.265h2.744v-6.968h.686v.006h8.155V107H92.053v-1.7h-2v3.7H101.9v10.429H90.05v3.7h2v-1.7h4.616v5.09H88.515ZM95.1,95.374V90.1h4.366v7.447h-2.8v2.357H90.616V95.374Zm-4.486-2V90.1H93.1v3.266ZM135.343,90.1h2.482v3.266h-2.482Zm2.482,5.269v4.535h-6.053V97.551h-2.8V90.1h4.366v5.269Zm-16.332,6.619V99.555h8.274V107h-3.223v-5.008Zm-7.273,27.154h-3.31V142.3h-3.353v-1.263h-6.1v-2.156h.011V130.89h5.477v4.921H104.9v2h4.05V126.448H119.49v11.367h4.05v-2h-2.047v-4.921h5.477v7.992h.011v2.156h-6.1V142.3h-3.353V129.148Zm-7.273-2.7v2.439H98.674V121.44H101.9v5.008Zm7.273-27.154h3.31V86.141h3.353V87.4h6.1V89.56h-.011v7.992h-5.477V92.63h2.047v-2h-4.05v11.367H108.951V90.627H104.9v2h2.047v4.921h-5.477V89.56h-.011V87.4h6.1V86.141h3.353V99.293Zm-7.273.261v2.439H101.9V107H98.674V99.555Zm0,4.442v3H103.9v-3ZM103.9,121.438h3.048v3H103.9Zm17.595,7.448v-2.439h5.052V121.44h3.223v7.447Zm0-4.442v-3h3.048v3Zm3.05-5.009h-5.052v5.008h-10.54v-5.008H103.9V109.006h5.052V104H119.49v5.008h5.052v10.429Zm0-12.433h-3.048v-3h3.048Zm8.8-18.9h-4.355V85.4h-8.1V84.137h-5.358V97.29h-2.613V84.137h-5.356V85.4h-8.1v2.7H95.1V80.915H133.34ZM90.616,133.067v-4.535h6.053v2.357h2.8v7.447H95.1v-5.269ZM95.1,140.34h4.355v2.7h8.1V144.3h5.356V131.151h2.614V144.3h5.357v-1.263h8.1v-2.7h4.355v7.186H95.1V140.34Zm36.67-13.811v-5.09h4.616v1.7h2v-3.7H126.546V109.006h11.846v-3.7h-2V107h-4.616v-5.09h8.155v-.006h.686v6.968h2.744v2.265H128.9V117.3h14.459v2.265h-2.744v6.968h-.686v-.006h-8.156ZM144.9,78.912h-9.558V69.353ZM133.34,67.559V78.912H95.1V67.559ZM93.1,69.354v9.558H83.54ZM81.537,80.915H93.1V88.1H88.613V93.37h-7.1V80.938ZM79.51,82.941V93.371H69.081ZM67.559,95.374H79.51v37.693H67.559Zm1.523,39.7H79.511V145.5ZM81.513,147.5V135.07h7.1v5.269H93.1v7.186H81.537Zm2.027,2.027H93.1v9.558ZM95.1,160.882V149.53H133.34v11.353Zm40.241-1.8v-9.558H144.9Zm11.562-11.56H135.343v-7.186h4.486v-5.269h7.1V147.5Zm2.027-2.027V135.07H159.36Zm11.951-12.433H148.931V95.374h11.951Z" transform="translate(102.08 343.78)" fill="url(#linear-gradient)"/>
        <path id="传统纹饰-6" data-name="传统纹饰" d="M134.932,64.22H93.509L64.22,93.509v41.422L93.509,164.22h41.422l29.289-29.289V93.509Zm24.427,29.151H148.93V82.941ZM146.928,80.938V93.371h-7.1V88.1h-4.486V80.916H146.9Zm0,52.129h-7.1v-4.529h2.787V121.57h2.744V115.3H130.9v-2.156H145.36v-6.271h-2.744V99.9h-2.787V95.375h7.1Zm-13.588,0v5.269h-4.366V130.89h2.8v-2.357h6.053v4.535Zm4.486,2v3.266h-2.482V135.07ZM93.1,138.336H90.616V135.07H93.1ZM81.513,114.221V95.374h7.1V99.9H85.825v6.968H83.081v6.271H97.54V115.3H83.081v6.271h2.744v6.968h2.787v4.529h-7.1Zm7,12.309v.006h-.686v-6.968H85.085V117.3H99.545V111.14H85.085v-2.265h2.744v-6.968h.686v.006h8.155V107H92.053v-1.7h-2v3.7H101.9v10.429H90.05v3.7h2v-1.7h4.616v5.09H88.515ZM95.1,95.374V90.1h4.366v7.447h-2.8v2.357H90.616V95.374Zm-4.486-2V90.1H93.1v3.266ZM135.343,90.1h2.482v3.266h-2.482Zm2.482,5.269v4.535h-6.053V97.551h-2.8V90.1h4.366v5.269Zm-16.332,6.619V99.555h8.274V107h-3.223v-5.008Zm-7.273,27.154h-3.31V142.3h-3.353v-1.263h-6.1v-2.156h.011V130.89h5.477v4.921H104.9v2h4.05V126.448H119.49v11.367h4.05v-2h-2.047v-4.921h5.477v7.992h.011v2.156h-6.1V142.3h-3.353V129.148Zm-7.273-2.7v2.439H98.674V121.44H101.9v5.008Zm7.273-27.154h3.31V86.141h3.353V87.4h6.1V89.56h-.011v7.992h-5.477V92.63h2.047v-2h-4.05v11.367H108.951V90.627H104.9v2h2.047v4.921h-5.477V89.56h-.011V87.4h6.1V86.141h3.353V99.293Zm-7.273.261v2.439H101.9V107H98.674V99.555Zm0,4.442v3H103.9v-3ZM103.9,121.438h3.048v3H103.9Zm17.595,7.448v-2.439h5.052V121.44h3.223v7.447Zm0-4.442v-3h3.048v3Zm3.05-5.009h-5.052v5.008h-10.54v-5.008H103.9V109.006h5.052V104H119.49v5.008h5.052v10.429Zm0-12.433h-3.048v-3h3.048Zm8.8-18.9h-4.355V85.4h-8.1V84.137h-5.358V97.29h-2.613V84.137h-5.356V85.4h-8.1v2.7H95.1V80.915H133.34ZM90.616,133.067v-4.535h6.053v2.357h2.8v7.447H95.1v-5.269ZM95.1,140.34h4.355v2.7h8.1V144.3h5.356V131.151h2.614V144.3h5.357v-1.263h8.1v-2.7h4.355v7.186H95.1V140.34Zm36.67-13.811v-5.09h4.616v1.7h2v-3.7H126.546V109.006h11.846v-3.7h-2V107h-4.616v-5.09h8.155v-.006h.686v6.968h2.744v2.265H128.9V117.3h14.459v2.265h-2.744v6.968h-.686v-.006h-8.156ZM144.9,78.912h-9.558V69.353ZM133.34,67.559V78.912H95.1V67.559ZM93.1,69.354v9.558H83.54ZM81.537,80.915H93.1V88.1H88.613V93.37h-7.1V80.938ZM79.51,82.941V93.371H69.081ZM67.559,95.374H79.51v37.693H67.559Zm1.523,39.7H79.511V145.5ZM81.513,147.5V135.07h7.1v5.269H93.1v7.186H81.537Zm2.027,2.027H93.1v9.558ZM95.1,160.882V149.53H133.34v11.353Zm40.241-1.8v-9.558H144.9Zm11.562-11.56H135.343v-7.186h4.486v-5.269h7.1V147.5Zm2.027-2.027V135.07H159.36Zm11.951-12.433H148.931V95.374h11.951Z" transform="translate(239.38 343.78)" fill="url(#linear-gradient)"/>
        <path id="传统纹饰-7" data-name="传统纹饰" d="M134.932,64.22H93.509L64.22,93.509v41.422L93.509,164.22h41.422l29.289-29.289V93.509Zm24.427,29.151H148.93V82.941ZM146.928,80.938V93.371h-7.1V88.1h-4.486V80.916H146.9Zm0,52.129h-7.1v-4.529h2.787V121.57h2.744V115.3H130.9v-2.156H145.36v-6.271h-2.744V99.9h-2.787V95.375h7.1Zm-13.588,0v5.269h-4.366V130.89h2.8v-2.357h6.053v4.535Zm4.486,2v3.266h-2.482V135.07ZM93.1,138.336H90.616V135.07H93.1ZM81.513,114.221V95.374h7.1V99.9H85.825v6.968H83.081v6.271H97.54V115.3H83.081v6.271h2.744v6.968h2.787v4.529h-7.1Zm7,12.309v.006h-.686v-6.968H85.085V117.3H99.545V111.14H85.085v-2.265h2.744v-6.968h.686v.006h8.155V107H92.053v-1.7h-2v3.7H101.9v10.429H90.05v3.7h2v-1.7h4.616v5.09H88.515ZM95.1,95.374V90.1h4.366v7.447h-2.8v2.357H90.616V95.374Zm-4.486-2V90.1H93.1v3.266ZM135.343,90.1h2.482v3.266h-2.482Zm2.482,5.269v4.535h-6.053V97.551h-2.8V90.1h4.366v5.269Zm-16.332,6.619V99.555h8.274V107h-3.223v-5.008Zm-7.273,27.154h-3.31V142.3h-3.353v-1.263h-6.1v-2.156h.011V130.89h5.477v4.921H104.9v2h4.05V126.448H119.49v11.367h4.05v-2h-2.047v-4.921h5.477v7.992h.011v2.156h-6.1V142.3h-3.353V129.148Zm-7.273-2.7v2.439H98.674V121.44H101.9v5.008Zm7.273-27.154h3.31V86.141h3.353V87.4h6.1V89.56h-.011v7.992h-5.477V92.63h2.047v-2h-4.05v11.367H108.951V90.627H104.9v2h2.047v4.921h-5.477V89.56h-.011V87.4h6.1V86.141h3.353V99.293Zm-7.273.261v2.439H101.9V107H98.674V99.555Zm0,4.442v3H103.9v-3ZM103.9,121.438h3.048v3H103.9Zm17.595,7.448v-2.439h5.052V121.44h3.223v7.447Zm0-4.442v-3h3.048v3Zm3.05-5.009h-5.052v5.008h-10.54v-5.008H103.9V109.006h5.052V104H119.49v5.008h5.052v10.429Zm0-12.433h-3.048v-3h3.048Zm8.8-18.9h-4.355V85.4h-8.1V84.137h-5.358V97.29h-2.613V84.137h-5.356V85.4h-8.1v2.7H95.1V80.915H133.34ZM90.616,133.067v-4.535h6.053v2.357h2.8v7.447H95.1v-5.269ZM95.1,140.34h4.355v2.7h8.1V144.3h5.356V131.151h2.614V144.3h5.357v-1.263h8.1v-2.7h4.355v7.186H95.1V140.34Zm36.67-13.811v-5.09h4.616v1.7h2v-3.7H126.546V109.006h11.846v-3.7h-2V107h-4.616v-5.09h8.155v-.006h.686v6.968h2.744v2.265H128.9V117.3h14.459v2.265h-2.744v6.968h-.686v-.006h-8.156ZM144.9,78.912h-9.558V69.353ZM133.34,67.559V78.912H95.1V67.559ZM93.1,69.354v9.558H83.54ZM81.537,80.915H93.1V88.1H88.613V93.37h-7.1V80.938ZM79.51,82.941V93.371H69.081ZM67.559,95.374H79.51v37.693H67.559Zm1.523,39.7H79.511V145.5ZM81.513,147.5V135.07h7.1v5.269H93.1v7.186H81.537Zm2.027,2.027H93.1v9.558ZM95.1,160.882V149.53H133.34v11.353Zm40.241-1.8v-9.558H144.9Zm11.562-11.56H135.343v-7.186h4.486v-5.269h7.1V147.5Zm2.027-2.027V135.07H159.36Zm11.951-12.433H148.931V95.374h11.951Z" transform="translate(376.68 343.78)" fill="url(#linear-gradient)"/>
        <path id="传统纹饰-8" data-name="传统纹饰" d="M134.932,64.22H93.509L64.22,93.509v41.422L93.509,164.22h41.422l29.289-29.289V93.509Zm24.427,29.151H148.93V82.941ZM146.928,80.938V93.371h-7.1V88.1h-4.486V80.916H146.9Zm0,52.129h-7.1v-4.529h2.787V121.57h2.744V115.3H130.9v-2.156H145.36v-6.271h-2.744V99.9h-2.787V95.375h7.1Zm-13.588,0v5.269h-4.366V130.89h2.8v-2.357h6.053v4.535Zm4.486,2v3.266h-2.482V135.07ZM93.1,138.336H90.616V135.07H93.1ZM81.513,114.221V95.374h7.1V99.9H85.825v6.968H83.081v6.271H97.54V115.3H83.081v6.271h2.744v6.968h2.787v4.529h-7.1Zm7,12.309v.006h-.686v-6.968H85.085V117.3H99.545V111.14H85.085v-2.265h2.744v-6.968h.686v.006h8.155V107H92.053v-1.7h-2v3.7H101.9v10.429H90.05v3.7h2v-1.7h4.616v5.09H88.515ZM95.1,95.374V90.1h4.366v7.447h-2.8v2.357H90.616V95.374Zm-4.486-2V90.1H93.1v3.266ZM135.343,90.1h2.482v3.266h-2.482Zm2.482,5.269v4.535h-6.053V97.551h-2.8V90.1h4.366v5.269Zm-16.332,6.619V99.555h8.274V107h-3.223v-5.008Zm-7.273,27.154h-3.31V142.3h-3.353v-1.263h-6.1v-2.156h.011V130.89h5.477v4.921H104.9v2h4.05V126.448H119.49v11.367h4.05v-2h-2.047v-4.921h5.477v7.992h.011v2.156h-6.1V142.3h-3.353V129.148Zm-7.273-2.7v2.439H98.674V121.44H101.9v5.008Zm7.273-27.154h3.31V86.141h3.353V87.4h6.1V89.56h-.011v7.992h-5.477V92.63h2.047v-2h-4.05v11.367H108.951V90.627H104.9v2h2.047v4.921h-5.477V89.56h-.011V87.4h6.1V86.141h3.353V99.293Zm-7.273.261v2.439H101.9V107H98.674V99.555Zm0,4.442v3H103.9v-3ZM103.9,121.438h3.048v3H103.9Zm17.595,7.448v-2.439h5.052V121.44h3.223v7.447Zm0-4.442v-3h3.048v3Zm3.05-5.009h-5.052v5.008h-10.54v-5.008H103.9V109.006h5.052V104H119.49v5.008h5.052v10.429Zm0-12.433h-3.048v-3h3.048Zm8.8-18.9h-4.355V85.4h-8.1V84.137h-5.358V97.29h-2.613V84.137h-5.356V85.4h-8.1v2.7H95.1V80.915H133.34ZM90.616,133.067v-4.535h6.053v2.357h2.8v7.447H95.1v-5.269ZM95.1,140.34h4.355v2.7h8.1V144.3h5.356V131.151h2.614V144.3h5.357v-1.263h8.1v-2.7h4.355v7.186H95.1V140.34Zm36.67-13.811v-5.09h4.616v1.7h2v-3.7H126.546V109.006h11.846v-3.7h-2V107h-4.616v-5.09h8.155v-.006h.686v6.968h2.744v2.265H128.9V117.3h14.459v2.265h-2.744v6.968h-.686v-.006h-8.156ZM144.9,78.912h-9.558V69.353ZM133.34,67.559V78.912H95.1V67.559ZM93.1,69.354v9.558H83.54ZM81.537,80.915H93.1V88.1H88.613V93.37h-7.1V80.938ZM79.51,82.941V93.371H69.081ZM67.559,95.374H79.51v37.693H67.559Zm1.523,39.7H79.511V145.5ZM81.513,147.5V135.07h7.1v5.269H93.1v7.186H81.537Zm2.027,2.027H93.1v9.558ZM95.1,160.882V149.53H133.34v11.353Zm40.241-1.8v-9.558H144.9Zm11.562-11.56H135.343v-7.186h4.486v-5.269h7.1V147.5Zm2.027-2.027V135.07H159.36Zm11.951-12.433H148.931V95.374h11.951Z" transform="translate(513.98 343.78)" fill="url(#linear-gradient)"/>
        <path id="传统纹饰-9" data-name="传统纹饰" d="M134.932,64.22H93.509L64.22,93.509v41.422L93.509,164.22h41.422l29.289-29.289V93.509Zm24.427,29.151H148.93V82.941ZM146.928,80.938V93.371h-7.1V88.1h-4.486V80.916H146.9Zm0,52.129h-7.1v-4.529h2.787V121.57h2.744V115.3H130.9v-2.156H145.36v-6.271h-2.744V99.9h-2.787V95.375h7.1Zm-13.588,0v5.269h-4.366V130.89h2.8v-2.357h6.053v4.535Zm4.486,2v3.266h-2.482V135.07ZM93.1,138.336H90.616V135.07H93.1ZM81.513,114.221V95.374h7.1V99.9H85.825v6.968H83.081v6.271H97.54V115.3H83.081v6.271h2.744v6.968h2.787v4.529h-7.1Zm7,12.309v.006h-.686v-6.968H85.085V117.3H99.545V111.14H85.085v-2.265h2.744v-6.968h.686v.006h8.155V107H92.053v-1.7h-2v3.7H101.9v10.429H90.05v3.7h2v-1.7h4.616v5.09H88.515ZM95.1,95.374V90.1h4.366v7.447h-2.8v2.357H90.616V95.374Zm-4.486-2V90.1H93.1v3.266ZM135.343,90.1h2.482v3.266h-2.482Zm2.482,5.269v4.535h-6.053V97.551h-2.8V90.1h4.366v5.269Zm-16.332,6.619V99.555h8.274V107h-3.223v-5.008Zm-7.273,27.154h-3.31V142.3h-3.353v-1.263h-6.1v-2.156h.011V130.89h5.477v4.921H104.9v2h4.05V126.448H119.49v11.367h4.05v-2h-2.047v-4.921h5.477v7.992h.011v2.156h-6.1V142.3h-3.353V129.148Zm-7.273-2.7v2.439H98.674V121.44H101.9v5.008Zm7.273-27.154h3.31V86.141h3.353V87.4h6.1V89.56h-.011v7.992h-5.477V92.63h2.047v-2h-4.05v11.367H108.951V90.627H104.9v2h2.047v4.921h-5.477V89.56h-.011V87.4h6.1V86.141h3.353V99.293Zm-7.273.261v2.439H101.9V107H98.674V99.555Zm0,4.442v3H103.9v-3ZM103.9,121.438h3.048v3H103.9Zm17.595,7.448v-2.439h5.052V121.44h3.223v7.447Zm0-4.442v-3h3.048v3Zm3.05-5.009h-5.052v5.008h-10.54v-5.008H103.9V109.006h5.052V104H119.49v5.008h5.052v10.429Zm0-12.433h-3.048v-3h3.048Zm8.8-18.9h-4.355V85.4h-8.1V84.137h-5.358V97.29h-2.613V84.137h-5.356V85.4h-8.1v2.7H95.1V80.915H133.34ZM90.616,133.067v-4.535h6.053v2.357h2.8v7.447H95.1v-5.269ZM95.1,140.34h4.355v2.7h8.1V144.3h5.356V131.151h2.614V144.3h5.357v-1.263h8.1v-2.7h4.355v7.186H95.1V140.34Zm36.67-13.811v-5.09h4.616v1.7h2v-3.7H126.546V109.006h11.846v-3.7h-2V107h-4.616v-5.09h8.155v-.006h.686v6.968h2.744v2.265H128.9V117.3h14.459v2.265h-2.744v6.968h-.686v-.006h-8.156ZM144.9,78.912h-9.558V69.353ZM133.34,67.559V78.912H95.1V67.559ZM93.1,69.354v9.558H83.54ZM81.537,80.915H93.1V88.1H88.613V93.37h-7.1V80.938ZM79.51,82.941V93.371H69.081ZM67.559,95.374H79.51v37.693H67.559Zm1.523,39.7H79.511V145.5ZM81.513,147.5V135.07h7.1v5.269H93.1v7.186H81.537Zm2.027,2.027H93.1v9.558ZM95.1,160.882V149.53H133.34v11.353Zm40.241-1.8v-9.558H144.9Zm11.562-11.56H135.343v-7.186h4.486v-5.269h7.1V147.5Zm2.027-2.027V135.07H159.36Zm11.951-12.433H148.931V95.374h11.951Z" transform="translate(-35.22 343.78)" fill="url(#linear-gradient)"/>
      </g>
      <g id="纹-3" data-name="纹" transform="translate(-29.9 -863)">
        <path id="传统纹饰-10" data-name="传统纹饰" d="M134.932,64.22H93.509L64.22,93.509v41.422L93.509,164.22h41.422l29.289-29.289V93.509Zm24.427,29.151H148.93V82.941ZM146.928,80.938V93.371h-7.1V88.1h-4.486V80.916H146.9Zm0,52.129h-7.1v-4.529h2.787V121.57h2.744V115.3H130.9v-2.156H145.36v-6.271h-2.744V99.9h-2.787V95.375h7.1Zm-13.588,0v5.269h-4.366V130.89h2.8v-2.357h6.053v4.535Zm4.486,2v3.266h-2.482V135.07ZM93.1,138.336H90.616V135.07H93.1ZM81.513,114.221V95.374h7.1V99.9H85.825v6.968H83.081v6.271H97.54V115.3H83.081v6.271h2.744v6.968h2.787v4.529h-7.1Zm7,12.309v.006h-.686v-6.968H85.085V117.3H99.545V111.14H85.085v-2.265h2.744v-6.968h.686v.006h8.155V107H92.053v-1.7h-2v3.7H101.9v10.429H90.05v3.7h2v-1.7h4.616v5.09H88.515ZM95.1,95.374V90.1h4.366v7.447h-2.8v2.357H90.616V95.374Zm-4.486-2V90.1H93.1v3.266ZM135.343,90.1h2.482v3.266h-2.482Zm2.482,5.269v4.535h-6.053V97.551h-2.8V90.1h4.366v5.269Zm-16.332,6.619V99.555h8.274V107h-3.223v-5.008Zm-7.273,27.154h-3.31V142.3h-3.353v-1.263h-6.1v-2.156h.011V130.89h5.477v4.921H104.9v2h4.05V126.448H119.49v11.367h4.05v-2h-2.047v-4.921h5.477v7.992h.011v2.156h-6.1V142.3h-3.353V129.148Zm-7.273-2.7v2.439H98.674V121.44H101.9v5.008Zm7.273-27.154h3.31V86.141h3.353V87.4h6.1V89.56h-.011v7.992h-5.477V92.63h2.047v-2h-4.05v11.367H108.951V90.627H104.9v2h2.047v4.921h-5.477V89.56h-.011V87.4h6.1V86.141h3.353V99.293Zm-7.273.261v2.439H101.9V107H98.674V99.555Zm0,4.442v3H103.9v-3ZM103.9,121.438h3.048v3H103.9Zm17.595,7.448v-2.439h5.052V121.44h3.223v7.447Zm0-4.442v-3h3.048v3Zm3.05-5.009h-5.052v5.008h-10.54v-5.008H103.9V109.006h5.052V104H119.49v5.008h5.052v10.429Zm0-12.433h-3.048v-3h3.048Zm8.8-18.9h-4.355V85.4h-8.1V84.137h-5.358V97.29h-2.613V84.137h-5.356V85.4h-8.1v2.7H95.1V80.915H133.34ZM90.616,133.067v-4.535h6.053v2.357h2.8v7.447H95.1v-5.269ZM95.1,140.34h4.355v2.7h8.1V144.3h5.356V131.151h2.614V144.3h5.357v-1.263h8.1v-2.7h4.355v7.186H95.1V140.34Zm36.67-13.811v-5.09h4.616v1.7h2v-3.7H126.546V109.006h11.846v-3.7h-2V107h-4.616v-5.09h8.155v-.006h.686v6.968h2.744v2.265H128.9V117.3h14.459v2.265h-2.744v6.968h-.686v-.006h-8.156ZM144.9,78.912h-9.558V69.353ZM133.34,67.559V78.912H95.1V67.559ZM93.1,69.354v9.558H83.54ZM81.537,80.915H93.1V88.1H88.613V93.37h-7.1V80.938ZM79.51,82.941V93.371H69.081ZM67.559,95.374H79.51v37.693H67.559Zm1.523,39.7H79.511V145.5ZM81.513,147.5V135.07h7.1v5.269H93.1v7.186H81.537Zm2.027,2.027H93.1v9.558ZM95.1,160.882V149.53H133.34v11.353Zm40.241-1.8v-9.558H144.9Zm11.562-11.56H135.343v-7.186h4.486v-5.269h7.1V147.5Zm2.027-2.027V135.07H159.36Zm11.951-12.433H148.931V95.374h11.951Z" transform="translate(-35.22 343.78)" fill="url(#linear-gradient)"/>
        <path id="传统纹饰-11" data-name="传统纹饰" d="M134.932,64.22H93.509L64.22,93.509v41.422L93.509,164.22h41.422l29.289-29.289V93.509Zm24.427,29.151H148.93V82.941ZM146.928,80.938V93.371h-7.1V88.1h-4.486V80.916H146.9Zm0,52.129h-7.1v-4.529h2.787V121.57h2.744V115.3H130.9v-2.156H145.36v-6.271h-2.744V99.9h-2.787V95.375h7.1Zm-13.588,0v5.269h-4.366V130.89h2.8v-2.357h6.053v4.535Zm4.486,2v3.266h-2.482V135.07ZM93.1,138.336H90.616V135.07H93.1ZM81.513,114.221V95.374h7.1V99.9H85.825v6.968H83.081v6.271H97.54V115.3H83.081v6.271h2.744v6.968h2.787v4.529h-7.1Zm7,12.309v.006h-.686v-6.968H85.085V117.3H99.545V111.14H85.085v-2.265h2.744v-6.968h.686v.006h8.155V107H92.053v-1.7h-2v3.7H101.9v10.429H90.05v3.7h2v-1.7h4.616v5.09H88.515ZM95.1,95.374V90.1h4.366v7.447h-2.8v2.357H90.616V95.374Zm-4.486-2V90.1H93.1v3.266ZM135.343,90.1h2.482v3.266h-2.482Zm2.482,5.269v4.535h-6.053V97.551h-2.8V90.1h4.366v5.269Zm-16.332,6.619V99.555h8.274V107h-3.223v-5.008Zm-7.273,27.154h-3.31V142.3h-3.353v-1.263h-6.1v-2.156h.011V130.89h5.477v4.921H104.9v2h4.05V126.448H119.49v11.367h4.05v-2h-2.047v-4.921h5.477v7.992h.011v2.156h-6.1V142.3h-3.353V129.148Zm-7.273-2.7v2.439H98.674V121.44H101.9v5.008Zm7.273-27.154h3.31V86.141h3.353V87.4h6.1V89.56h-.011v7.992h-5.477V92.63h2.047v-2h-4.05v11.367H108.951V90.627H104.9v2h2.047v4.921h-5.477V89.56h-.011V87.4h6.1V86.141h3.353V99.293Zm-7.273.261v2.439H101.9V107H98.674V99.555Zm0,4.442v3H103.9v-3ZM103.9,121.438h3.048v3H103.9Zm17.595,7.448v-2.439h5.052V121.44h3.223v7.447Zm0-4.442v-3h3.048v3Zm3.05-5.009h-5.052v5.008h-10.54v-5.008H103.9V109.006h5.052V104H119.49v5.008h5.052v10.429Zm0-12.433h-3.048v-3h3.048Zm8.8-18.9h-4.355V85.4h-8.1V84.137h-5.358V97.29h-2.613V84.137h-5.356V85.4h-8.1v2.7H95.1V80.915H133.34ZM90.616,133.067v-4.535h6.053v2.357h2.8v7.447H95.1v-5.269ZM95.1,140.34h4.355v2.7h8.1V144.3h5.356V131.151h2.614V144.3h5.357v-1.263h8.1v-2.7h4.355v7.186H95.1V140.34Zm36.67-13.811v-5.09h4.616v1.7h2v-3.7H126.546V109.006h11.846v-3.7h-2V107h-4.616v-5.09h8.155v-.006h.686v6.968h2.744v2.265H128.9V117.3h14.459v2.265h-2.744v6.968h-.686v-.006h-8.156ZM144.9,78.912h-9.558V69.353ZM133.34,67.559V78.912H95.1V67.559ZM93.1,69.354v9.558H83.54ZM81.537,80.915H93.1V88.1H88.613V93.37h-7.1V80.938ZM79.51,82.941V93.371H69.081ZM67.559,95.374H79.51v37.693H67.559Zm1.523,39.7H79.511V145.5ZM81.513,147.5V135.07h7.1v5.269H93.1v7.186H81.537Zm2.027,2.027H93.1v9.558ZM95.1,160.882V149.53H133.34v11.353Zm40.241-1.8v-9.558H144.9Zm11.562-11.56H135.343v-7.186h4.486v-5.269h7.1V147.5Zm2.027-2.027V135.07H159.36Zm11.951-12.433H148.931V95.374h11.951Z" transform="translate(102.08 343.78)" fill="url(#linear-gradient)"/>
        <path id="传统纹饰-12" data-name="传统纹饰" d="M134.932,64.22H93.509L64.22,93.509v41.422L93.509,164.22h41.422l29.289-29.289V93.509Zm24.427,29.151H148.93V82.941ZM146.928,80.938V93.371h-7.1V88.1h-4.486V80.916H146.9Zm0,52.129h-7.1v-4.529h2.787V121.57h2.744V115.3H130.9v-2.156H145.36v-6.271h-2.744V99.9h-2.787V95.375h7.1Zm-13.588,0v5.269h-4.366V130.89h2.8v-2.357h6.053v4.535Zm4.486,2v3.266h-2.482V135.07ZM93.1,138.336H90.616V135.07H93.1ZM81.513,114.221V95.374h7.1V99.9H85.825v6.968H83.081v6.271H97.54V115.3H83.081v6.271h2.744v6.968h2.787v4.529h-7.1Zm7,12.309v.006h-.686v-6.968H85.085V117.3H99.545V111.14H85.085v-2.265h2.744v-6.968h.686v.006h8.155V107H92.053v-1.7h-2v3.7H101.9v10.429H90.05v3.7h2v-1.7h4.616v5.09H88.515ZM95.1,95.374V90.1h4.366v7.447h-2.8v2.357H90.616V95.374Zm-4.486-2V90.1H93.1v3.266ZM135.343,90.1h2.482v3.266h-2.482Zm2.482,5.269v4.535h-6.053V97.551h-2.8V90.1h4.366v5.269Zm-16.332,6.619V99.555h8.274V107h-3.223v-5.008Zm-7.273,27.154h-3.31V142.3h-3.353v-1.263h-6.1v-2.156h.011V130.89h5.477v4.921H104.9v2h4.05V126.448H119.49v11.367h4.05v-2h-2.047v-4.921h5.477v7.992h.011v2.156h-6.1V142.3h-3.353V129.148Zm-7.273-2.7v2.439H98.674V121.44H101.9v5.008Zm7.273-27.154h3.31V86.141h3.353V87.4h6.1V89.56h-.011v7.992h-5.477V92.63h2.047v-2h-4.05v11.367H108.951V90.627H104.9v2h2.047v4.921h-5.477V89.56h-.011V87.4h6.1V86.141h3.353V99.293Zm-7.273.261v2.439H101.9V107H98.674V99.555Zm0,4.442v3H103.9v-3ZM103.9,121.438h3.048v3H103.9Zm17.595,7.448v-2.439h5.052V121.44h3.223v7.447Zm0-4.442v-3h3.048v3Zm3.05-5.009h-5.052v5.008h-10.54v-5.008H103.9V109.006h5.052V104H119.49v5.008h5.052v10.429Zm0-12.433h-3.048v-3h3.048Zm8.8-18.9h-4.355V85.4h-8.1V84.137h-5.358V97.29h-2.613V84.137h-5.356V85.4h-8.1v2.7H95.1V80.915H133.34ZM90.616,133.067v-4.535h6.053v2.357h2.8v7.447H95.1v-5.269ZM95.1,140.34h4.355v2.7h8.1V144.3h5.356V131.151h2.614V144.3h5.357v-1.263h8.1v-2.7h4.355v7.186H95.1V140.34Zm36.67-13.811v-5.09h4.616v1.7h2v-3.7H126.546V109.006h11.846v-3.7h-2V107h-4.616v-5.09h8.155v-.006h.686v6.968h2.744v2.265H128.9V117.3h14.459v2.265h-2.744v6.968h-.686v-.006h-8.156ZM144.9,78.912h-9.558V69.353ZM133.34,67.559V78.912H95.1V67.559ZM93.1,69.354v9.558H83.54ZM81.537,80.915H93.1V88.1H88.613V93.37h-7.1V80.938ZM79.51,82.941V93.371H69.081ZM67.559,95.374H79.51v37.693H67.559Zm1.523,39.7H79.511V145.5ZM81.513,147.5V135.07h7.1v5.269H93.1v7.186H81.537Zm2.027,2.027H93.1v9.558ZM95.1,160.882V149.53H133.34v11.353Zm40.241-1.8v-9.558H144.9Zm11.562-11.56H135.343v-7.186h4.486v-5.269h7.1V147.5Zm2.027-2.027V135.07H159.36Zm11.951-12.433H148.931V95.374h11.951Z" transform="translate(376.68 343.78)" fill="url(#linear-gradient)"/>
        <path id="传统纹饰-13" data-name="传统纹饰" d="M134.932,64.22H93.509L64.22,93.509v41.422L93.509,164.22h41.422l29.289-29.289V93.509Zm24.427,29.151H148.93V82.941ZM146.928,80.938V93.371h-7.1V88.1h-4.486V80.916H146.9Zm0,52.129h-7.1v-4.529h2.787V121.57h2.744V115.3H130.9v-2.156H145.36v-6.271h-2.744V99.9h-2.787V95.375h7.1Zm-13.588,0v5.269h-4.366V130.89h2.8v-2.357h6.053v4.535Zm4.486,2v3.266h-2.482V135.07ZM93.1,138.336H90.616V135.07H93.1ZM81.513,114.221V95.374h7.1V99.9H85.825v6.968H83.081v6.271H97.54V115.3H83.081v6.271h2.744v6.968h2.787v4.529h-7.1Zm7,12.309v.006h-.686v-6.968H85.085V117.3H99.545V111.14H85.085v-2.265h2.744v-6.968h.686v.006h8.155V107H92.053v-1.7h-2v3.7H101.9v10.429H90.05v3.7h2v-1.7h4.616v5.09H88.515ZM95.1,95.374V90.1h4.366v7.447h-2.8v2.357H90.616V95.374Zm-4.486-2V90.1H93.1v3.266ZM135.343,90.1h2.482v3.266h-2.482Zm2.482,5.269v4.535h-6.053V97.551h-2.8V90.1h4.366v5.269Zm-16.332,6.619V99.555h8.274V107h-3.223v-5.008Zm-7.273,27.154h-3.31V142.3h-3.353v-1.263h-6.1v-2.156h.011V130.89h5.477v4.921H104.9v2h4.05V126.448H119.49v11.367h4.05v-2h-2.047v-4.921h5.477v7.992h.011v2.156h-6.1V142.3h-3.353V129.148Zm-7.273-2.7v2.439H98.674V121.44H101.9v5.008Zm7.273-27.154h3.31V86.141h3.353V87.4h6.1V89.56h-.011v7.992h-5.477V92.63h2.047v-2h-4.05v11.367H108.951V90.627H104.9v2h2.047v4.921h-5.477V89.56h-.011V87.4h6.1V86.141h3.353V99.293Zm-7.273.261v2.439H101.9V107H98.674V99.555Zm0,4.442v3H103.9v-3ZM103.9,121.438h3.048v3H103.9Zm17.595,7.448v-2.439h5.052V121.44h3.223v7.447Zm0-4.442v-3h3.048v3Zm3.05-5.009h-5.052v5.008h-10.54v-5.008H103.9V109.006h5.052V104H119.49v5.008h5.052v10.429Zm0-12.433h-3.048v-3h3.048Zm8.8-18.9h-4.355V85.4h-8.1V84.137h-5.358V97.29h-2.613V84.137h-5.356V85.4h-8.1v2.7H95.1V80.915H133.34ZM90.616,133.067v-4.535h6.053v2.357h2.8v7.447H95.1v-5.269ZM95.1,140.34h4.355v2.7h8.1V144.3h5.356V131.151h2.614V144.3h5.357v-1.263h8.1v-2.7h4.355v7.186H95.1V140.34Zm36.67-13.811v-5.09h4.616v1.7h2v-3.7H126.546V109.006h11.846v-3.7h-2V107h-4.616v-5.09h8.155v-.006h.686v6.968h2.744v2.265H128.9V117.3h14.459v2.265h-2.744v6.968h-.686v-.006h-8.156ZM144.9,78.912h-9.558V69.353ZM133.34,67.559V78.912H95.1V67.559ZM93.1,69.354v9.558H83.54ZM81.537,80.915H93.1V88.1H88.613V93.37h-7.1V80.938ZM79.51,82.941V93.371H69.081ZM67.559,95.374H79.51v37.693H67.559Zm1.523,39.7H79.511V145.5ZM81.513,147.5V135.07h7.1v5.269H93.1v7.186H81.537Zm2.027,2.027H93.1v9.558ZM95.1,160.882V149.53H133.34v11.353Zm40.241-1.8v-9.558H144.9Zm11.562-11.56H135.343v-7.186h4.486v-5.269h7.1V147.5Zm2.027-2.027V135.07H159.36Zm11.951-12.433H148.931V95.374h11.951Z" transform="translate(239.38 343.78)" fill="url(#linear-gradient)"/>
      </g>
      <g id="纹-4" data-name="纹" transform="translate(-98.2 -955)">
        <path id="传统纹饰-14" data-name="传统纹饰" d="M134.932,64.22H93.509L64.22,93.509v41.422L93.509,164.22h41.422l29.289-29.289V93.509Zm24.427,29.151H148.93V82.941ZM146.928,80.938V93.371h-7.1V88.1h-4.486V80.916H146.9Zm0,52.129h-7.1v-4.529h2.787V121.57h2.744V115.3H130.9v-2.156H145.36v-6.271h-2.744V99.9h-2.787V95.375h7.1Zm-13.588,0v5.269h-4.366V130.89h2.8v-2.357h6.053v4.535Zm4.486,2v3.266h-2.482V135.07ZM93.1,138.336H90.616V135.07H93.1ZM81.513,114.221V95.374h7.1V99.9H85.825v6.968H83.081v6.271H97.54V115.3H83.081v6.271h2.744v6.968h2.787v4.529h-7.1Zm7,12.309v.006h-.686v-6.968H85.085V117.3H99.545V111.14H85.085v-2.265h2.744v-6.968h.686v.006h8.155V107H92.053v-1.7h-2v3.7H101.9v10.429H90.05v3.7h2v-1.7h4.616v5.09H88.515ZM95.1,95.374V90.1h4.366v7.447h-2.8v2.357H90.616V95.374Zm-4.486-2V90.1H93.1v3.266ZM135.343,90.1h2.482v3.266h-2.482Zm2.482,5.269v4.535h-6.053V97.551h-2.8V90.1h4.366v5.269Zm-16.332,6.619V99.555h8.274V107h-3.223v-5.008Zm-7.273,27.154h-3.31V142.3h-3.353v-1.263h-6.1v-2.156h.011V130.89h5.477v4.921H104.9v2h4.05V126.448H119.49v11.367h4.05v-2h-2.047v-4.921h5.477v7.992h.011v2.156h-6.1V142.3h-3.353V129.148Zm-7.273-2.7v2.439H98.674V121.44H101.9v5.008Zm7.273-27.154h3.31V86.141h3.353V87.4h6.1V89.56h-.011v7.992h-5.477V92.63h2.047v-2h-4.05v11.367H108.951V90.627H104.9v2h2.047v4.921h-5.477V89.56h-.011V87.4h6.1V86.141h3.353V99.293Zm-7.273.261v2.439H101.9V107H98.674V99.555Zm0,4.442v3H103.9v-3ZM103.9,121.438h3.048v3H103.9Zm17.595,7.448v-2.439h5.052V121.44h3.223v7.447Zm0-4.442v-3h3.048v3Zm3.05-5.009h-5.052v5.008h-10.54v-5.008H103.9V109.006h5.052V104H119.49v5.008h5.052v10.429Zm0-12.433h-3.048v-3h3.048Zm8.8-18.9h-4.355V85.4h-8.1V84.137h-5.358V97.29h-2.613V84.137h-5.356V85.4h-8.1v2.7H95.1V80.915H133.34ZM90.616,133.067v-4.535h6.053v2.357h2.8v7.447H95.1v-5.269ZM95.1,140.34h4.355v2.7h8.1V144.3h5.356V131.151h2.614V144.3h5.357v-1.263h8.1v-2.7h4.355v7.186H95.1V140.34Zm36.67-13.811v-5.09h4.616v1.7h2v-3.7H126.546V109.006h11.846v-3.7h-2V107h-4.616v-5.09h8.155v-.006h.686v6.968h2.744v2.265H128.9V117.3h14.459v2.265h-2.744v6.968h-.686v-.006h-8.156ZM144.9,78.912h-9.558V69.353ZM133.34,67.559V78.912H95.1V67.559ZM93.1,69.354v9.558H83.54ZM81.537,80.915H93.1V88.1H88.613V93.37h-7.1V80.938ZM79.51,82.941V93.371H69.081ZM67.559,95.374H79.51v37.693H67.559Zm1.523,39.7H79.511V145.5ZM81.513,147.5V135.07h7.1v5.269H93.1v7.186H81.537Zm2.027,2.027H93.1v9.558ZM95.1,160.882V149.53H133.34v11.353Zm40.241-1.8v-9.558H144.9Zm11.562-11.56H135.343v-7.186h4.486v-5.269h7.1V147.5Zm2.027-2.027V135.07H159.36Zm11.951-12.433H148.931V95.374h11.951Z" transform="translate(102.08 343.78)" fill="url(#linear-gradient)"/>
        <path id="传统纹饰-15" data-name="传统纹饰" d="M134.932,64.22H93.509L64.22,93.509v41.422L93.509,164.22h41.422l29.289-29.289V93.509Zm24.427,29.151H148.93V82.941ZM146.928,80.938V93.371h-7.1V88.1h-4.486V80.916H146.9Zm0,52.129h-7.1v-4.529h2.787V121.57h2.744V115.3H130.9v-2.156H145.36v-6.271h-2.744V99.9h-2.787V95.375h7.1Zm-13.588,0v5.269h-4.366V130.89h2.8v-2.357h6.053v4.535Zm4.486,2v3.266h-2.482V135.07ZM93.1,138.336H90.616V135.07H93.1ZM81.513,114.221V95.374h7.1V99.9H85.825v6.968H83.081v6.271H97.54V115.3H83.081v6.271h2.744v6.968h2.787v4.529h-7.1Zm7,12.309v.006h-.686v-6.968H85.085V117.3H99.545V111.14H85.085v-2.265h2.744v-6.968h.686v.006h8.155V107H92.053v-1.7h-2v3.7H101.9v10.429H90.05v3.7h2v-1.7h4.616v5.09H88.515ZM95.1,95.374V90.1h4.366v7.447h-2.8v2.357H90.616V95.374Zm-4.486-2V90.1H93.1v3.266ZM135.343,90.1h2.482v3.266h-2.482Zm2.482,5.269v4.535h-6.053V97.551h-2.8V90.1h4.366v5.269Zm-16.332,6.619V99.555h8.274V107h-3.223v-5.008Zm-7.273,27.154h-3.31V142.3h-3.353v-1.263h-6.1v-2.156h.011V130.89h5.477v4.921H104.9v2h4.05V126.448H119.49v11.367h4.05v-2h-2.047v-4.921h5.477v7.992h.011v2.156h-6.1V142.3h-3.353V129.148Zm-7.273-2.7v2.439H98.674V121.44H101.9v5.008Zm7.273-27.154h3.31V86.141h3.353V87.4h6.1V89.56h-.011v7.992h-5.477V92.63h2.047v-2h-4.05v11.367H108.951V90.627H104.9v2h2.047v4.921h-5.477V89.56h-.011V87.4h6.1V86.141h3.353V99.293Zm-7.273.261v2.439H101.9V107H98.674V99.555Zm0,4.442v3H103.9v-3ZM103.9,121.438h3.048v3H103.9Zm17.595,7.448v-2.439h5.052V121.44h3.223v7.447Zm0-4.442v-3h3.048v3Zm3.05-5.009h-5.052v5.008h-10.54v-5.008H103.9V109.006h5.052V104H119.49v5.008h5.052v10.429Zm0-12.433h-3.048v-3h3.048Zm8.8-18.9h-4.355V85.4h-8.1V84.137h-5.358V97.29h-2.613V84.137h-5.356V85.4h-8.1v2.7H95.1V80.915H133.34ZM90.616,133.067v-4.535h6.053v2.357h2.8v7.447H95.1v-5.269ZM95.1,140.34h4.355v2.7h8.1V144.3h5.356V131.151h2.614V144.3h5.357v-1.263h8.1v-2.7h4.355v7.186H95.1V140.34Zm36.67-13.811v-5.09h4.616v1.7h2v-3.7H126.546V109.006h11.846v-3.7h-2V107h-4.616v-5.09h8.155v-.006h.686v6.968h2.744v2.265H128.9V117.3h14.459v2.265h-2.744v6.968h-.686v-.006h-8.156ZM144.9,78.912h-9.558V69.353ZM133.34,67.559V78.912H95.1V67.559ZM93.1,69.354v9.558H83.54ZM81.537,80.915H93.1V88.1H88.613V93.37h-7.1V80.938ZM79.51,82.941V93.371H69.081ZM67.559,95.374H79.51v37.693H67.559Zm1.523,39.7H79.511V145.5ZM81.513,147.5V135.07h7.1v5.269H93.1v7.186H81.537Zm2.027,2.027H93.1v9.558ZM95.1,160.882V149.53H133.34v11.353Zm40.241-1.8v-9.558H144.9Zm11.562-11.56H135.343v-7.186h4.486v-5.269h7.1V147.5Zm2.027-2.027V135.07H159.36Zm11.951-12.433H148.931V95.374h11.951Z" transform="translate(376.68 343.78)" fill="url(#linear-gradient)"/>
        <path id="传统纹饰-16" data-name="传统纹饰" d="M134.932,64.22H93.509L64.22,93.509v41.422L93.509,164.22h41.422l29.289-29.289V93.509Zm24.427,29.151H148.93V82.941ZM146.928,80.938V93.371h-7.1V88.1h-4.486V80.916H146.9Zm0,52.129h-7.1v-4.529h2.787V121.57h2.744V115.3H130.9v-2.156H145.36v-6.271h-2.744V99.9h-2.787V95.375h7.1Zm-13.588,0v5.269h-4.366V130.89h2.8v-2.357h6.053v4.535Zm4.486,2v3.266h-2.482V135.07ZM93.1,138.336H90.616V135.07H93.1ZM81.513,114.221V95.374h7.1V99.9H85.825v6.968H83.081v6.271H97.54V115.3H83.081v6.271h2.744v6.968h2.787v4.529h-7.1Zm7,12.309v.006h-.686v-6.968H85.085V117.3H99.545V111.14H85.085v-2.265h2.744v-6.968h.686v.006h8.155V107H92.053v-1.7h-2v3.7H101.9v10.429H90.05v3.7h2v-1.7h4.616v5.09H88.515ZM95.1,95.374V90.1h4.366v7.447h-2.8v2.357H90.616V95.374Zm-4.486-2V90.1H93.1v3.266ZM135.343,90.1h2.482v3.266h-2.482Zm2.482,5.269v4.535h-6.053V97.551h-2.8V90.1h4.366v5.269Zm-16.332,6.619V99.555h8.274V107h-3.223v-5.008Zm-7.273,27.154h-3.31V142.3h-3.353v-1.263h-6.1v-2.156h.011V130.89h5.477v4.921H104.9v2h4.05V126.448H119.49v11.367h4.05v-2h-2.047v-4.921h5.477v7.992h.011v2.156h-6.1V142.3h-3.353V129.148Zm-7.273-2.7v2.439H98.674V121.44H101.9v5.008Zm7.273-27.154h3.31V86.141h3.353V87.4h6.1V89.56h-.011v7.992h-5.477V92.63h2.047v-2h-4.05v11.367H108.951V90.627H104.9v2h2.047v4.921h-5.477V89.56h-.011V87.4h6.1V86.141h3.353V99.293Zm-7.273.261v2.439H101.9V107H98.674V99.555Zm0,4.442v3H103.9v-3ZM103.9,121.438h3.048v3H103.9Zm17.595,7.448v-2.439h5.052V121.44h3.223v7.447Zm0-4.442v-3h3.048v3Zm3.05-5.009h-5.052v5.008h-10.54v-5.008H103.9V109.006h5.052V104H119.49v5.008h5.052v10.429Zm0-12.433h-3.048v-3h3.048Zm8.8-18.9h-4.355V85.4h-8.1V84.137h-5.358V97.29h-2.613V84.137h-5.356V85.4h-8.1v2.7H95.1V80.915H133.34ZM90.616,133.067v-4.535h6.053v2.357h2.8v7.447H95.1v-5.269ZM95.1,140.34h4.355v2.7h8.1V144.3h5.356V131.151h2.614V144.3h5.357v-1.263h8.1v-2.7h4.355v7.186H95.1V140.34Zm36.67-13.811v-5.09h4.616v1.7h2v-3.7H126.546V109.006h11.846v-3.7h-2V107h-4.616v-5.09h8.155v-.006h.686v6.968h2.744v2.265H128.9V117.3h14.459v2.265h-2.744v6.968h-.686v-.006h-8.156ZM144.9,78.912h-9.558V69.353ZM133.34,67.559V78.912H95.1V67.559ZM93.1,69.354v9.558H83.54ZM81.537,80.915H93.1V88.1H88.613V93.37h-7.1V80.938ZM79.51,82.941V93.371H69.081ZM67.559,95.374H79.51v37.693H67.559Zm1.523,39.7H79.511V145.5ZM81.513,147.5V135.07h7.1v5.269H93.1v7.186H81.537Zm2.027,2.027H93.1v9.558ZM95.1,160.882V149.53H133.34v11.353Zm40.241-1.8v-9.558H144.9Zm11.562-11.56H135.343v-7.186h4.486v-5.269h7.1V147.5Zm2.027-2.027V135.07H159.36Zm11.951-12.433H148.931V95.374h11.951Z" transform="translate(239.38 343.78)" fill="url(#linear-gradient)"/>
        <path id="传统纹饰-17" data-name="传统纹饰" d="M134.932,64.22H93.509L64.22,93.509v41.422L93.509,164.22h41.422l29.289-29.289V93.509Zm24.427,29.151H148.93V82.941ZM146.928,80.938V93.371h-7.1V88.1h-4.486V80.916H146.9Zm0,52.129h-7.1v-4.529h2.787V121.57h2.744V115.3H130.9v-2.156H145.36v-6.271h-2.744V99.9h-2.787V95.375h7.1Zm-13.588,0v5.269h-4.366V130.89h2.8v-2.357h6.053v4.535Zm4.486,2v3.266h-2.482V135.07ZM93.1,138.336H90.616V135.07H93.1ZM81.513,114.221V95.374h7.1V99.9H85.825v6.968H83.081v6.271H97.54V115.3H83.081v6.271h2.744v6.968h2.787v4.529h-7.1Zm7,12.309v.006h-.686v-6.968H85.085V117.3H99.545V111.14H85.085v-2.265h2.744v-6.968h.686v.006h8.155V107H92.053v-1.7h-2v3.7H101.9v10.429H90.05v3.7h2v-1.7h4.616v5.09H88.515ZM95.1,95.374V90.1h4.366v7.447h-2.8v2.357H90.616V95.374Zm-4.486-2V90.1H93.1v3.266ZM135.343,90.1h2.482v3.266h-2.482Zm2.482,5.269v4.535h-6.053V97.551h-2.8V90.1h4.366v5.269Zm-16.332,6.619V99.555h8.274V107h-3.223v-5.008Zm-7.273,27.154h-3.31V142.3h-3.353v-1.263h-6.1v-2.156h.011V130.89h5.477v4.921H104.9v2h4.05V126.448H119.49v11.367h4.05v-2h-2.047v-4.921h5.477v7.992h.011v2.156h-6.1V142.3h-3.353V129.148Zm-7.273-2.7v2.439H98.674V121.44H101.9v5.008Zm7.273-27.154h3.31V86.141h3.353V87.4h6.1V89.56h-.011v7.992h-5.477V92.63h2.047v-2h-4.05v11.367H108.951V90.627H104.9v2h2.047v4.921h-5.477V89.56h-.011V87.4h6.1V86.141h3.353V99.293Zm-7.273.261v2.439H101.9V107H98.674V99.555Zm0,4.442v3H103.9v-3ZM103.9,121.438h3.048v3H103.9Zm17.595,7.448v-2.439h5.052V121.44h3.223v7.447Zm0-4.442v-3h3.048v3Zm3.05-5.009h-5.052v5.008h-10.54v-5.008H103.9V109.006h5.052V104H119.49v5.008h5.052v10.429Zm0-12.433h-3.048v-3h3.048Zm8.8-18.9h-4.355V85.4h-8.1V84.137h-5.358V97.29h-2.613V84.137h-5.356V85.4h-8.1v2.7H95.1V80.915H133.34ZM90.616,133.067v-4.535h6.053v2.357h2.8v7.447H95.1v-5.269ZM95.1,140.34h4.355v2.7h8.1V144.3h5.356V131.151h2.614V144.3h5.357v-1.263h8.1v-2.7h4.355v7.186H95.1V140.34Zm36.67-13.811v-5.09h4.616v1.7h2v-3.7H126.546V109.006h11.846v-3.7h-2V107h-4.616v-5.09h8.155v-.006h.686v6.968h2.744v2.265H128.9V117.3h14.459v2.265h-2.744v6.968h-.686v-.006h-8.156ZM144.9,78.912h-9.558V69.353ZM133.34,67.559V78.912H95.1V67.559ZM93.1,69.354v9.558H83.54ZM81.537,80.915H93.1V88.1H88.613V93.37h-7.1V80.938ZM79.51,82.941V93.371H69.081ZM67.559,95.374H79.51v37.693H67.559Zm1.523,39.7H79.511V145.5ZM81.513,147.5V135.07h7.1v5.269H93.1v7.186H81.537Zm2.027,2.027H93.1v9.558ZM95.1,160.882V149.53H133.34v11.353Zm40.241-1.8v-9.558H144.9Zm11.562-11.56H135.343v-7.186h4.486v-5.269h7.1V147.5Zm2.027-2.027V135.07H159.36Zm11.951-12.433H148.931V95.374h11.951Z" transform="translate(-35.22 343.78)" fill="url(#linear-gradient)"/>
        <path id="传统纹饰-18" data-name="传统纹饰" d="M134.932,64.22H93.509L64.22,93.509v41.422L93.509,164.22h41.422l29.289-29.289V93.509Zm24.427,29.151H148.93V82.941ZM146.928,80.938V93.371h-7.1V88.1h-4.486V80.916H146.9Zm0,52.129h-7.1v-4.529h2.787V121.57h2.744V115.3H130.9v-2.156H145.36v-6.271h-2.744V99.9h-2.787V95.375h7.1Zm-13.588,0v5.269h-4.366V130.89h2.8v-2.357h6.053v4.535Zm4.486,2v3.266h-2.482V135.07ZM93.1,138.336H90.616V135.07H93.1ZM81.513,114.221V95.374h7.1V99.9H85.825v6.968H83.081v6.271H97.54V115.3H83.081v6.271h2.744v6.968h2.787v4.529h-7.1Zm7,12.309v.006h-.686v-6.968H85.085V117.3H99.545V111.14H85.085v-2.265h2.744v-6.968h.686v.006h8.155V107H92.053v-1.7h-2v3.7H101.9v10.429H90.05v3.7h2v-1.7h4.616v5.09H88.515ZM95.1,95.374V90.1h4.366v7.447h-2.8v2.357H90.616V95.374Zm-4.486-2V90.1H93.1v3.266ZM135.343,90.1h2.482v3.266h-2.482Zm2.482,5.269v4.535h-6.053V97.551h-2.8V90.1h4.366v5.269Zm-16.332,6.619V99.555h8.274V107h-3.223v-5.008Zm-7.273,27.154h-3.31V142.3h-3.353v-1.263h-6.1v-2.156h.011V130.89h5.477v4.921H104.9v2h4.05V126.448H119.49v11.367h4.05v-2h-2.047v-4.921h5.477v7.992h.011v2.156h-6.1V142.3h-3.353V129.148Zm-7.273-2.7v2.439H98.674V121.44H101.9v5.008Zm7.273-27.154h3.31V86.141h3.353V87.4h6.1V89.56h-.011v7.992h-5.477V92.63h2.047v-2h-4.05v11.367H108.951V90.627H104.9v2h2.047v4.921h-5.477V89.56h-.011V87.4h6.1V86.141h3.353V99.293Zm-7.273.261v2.439H101.9V107H98.674V99.555Zm0,4.442v3H103.9v-3ZM103.9,121.438h3.048v3H103.9Zm17.595,7.448v-2.439h5.052V121.44h3.223v7.447Zm0-4.442v-3h3.048v3Zm3.05-5.009h-5.052v5.008h-10.54v-5.008H103.9V109.006h5.052V104H119.49v5.008h5.052v10.429Zm0-12.433h-3.048v-3h3.048Zm8.8-18.9h-4.355V85.4h-8.1V84.137h-5.358V97.29h-2.613V84.137h-5.356V85.4h-8.1v2.7H95.1V80.915H133.34ZM90.616,133.067v-4.535h6.053v2.357h2.8v7.447H95.1v-5.269ZM95.1,140.34h4.355v2.7h8.1V144.3h5.356V131.151h2.614V144.3h5.357v-1.263h8.1v-2.7h4.355v7.186H95.1V140.34Zm36.67-13.811v-5.09h4.616v1.7h2v-3.7H126.546V109.006h11.846v-3.7h-2V107h-4.616v-5.09h8.155v-.006h.686v6.968h2.744v2.265H128.9V117.3h14.459v2.265h-2.744v6.968h-.686v-.006h-8.156ZM144.9,78.912h-9.558V69.353ZM133.34,67.559V78.912H95.1V67.559ZM93.1,69.354v9.558H83.54ZM81.537,80.915H93.1V88.1H88.613V93.37h-7.1V80.938ZM79.51,82.941V93.371H69.081ZM67.559,95.374H79.51v37.693H67.559Zm1.523,39.7H79.511V145.5ZM81.513,147.5V135.07h7.1v5.269H93.1v7.186H81.537Zm2.027,2.027H93.1v9.558ZM95.1,160.882V149.53H133.34v11.353Zm40.241-1.8v-9.558H144.9Zm11.562-11.56H135.343v-7.186h4.486v-5.269h7.1V147.5Zm2.027-2.027V135.07H159.36Zm11.951-12.433H148.931V95.374h11.951Z" transform="translate(513.98 343.78)" fill="url(#linear-gradient)"/>
      </g>
      <g id="纹-5" data-name="纹" transform="translate(-29.9 -1053)">
        <path id="传统纹饰-19" data-name="传统纹饰" d="M134.932,64.22H93.509L64.22,93.509v41.422L93.509,164.22h41.422l29.289-29.289V93.509Zm24.427,29.151H148.93V82.941ZM146.928,80.938V93.371h-7.1V88.1h-4.486V80.916H146.9Zm0,52.129h-7.1v-4.529h2.787V121.57h2.744V115.3H130.9v-2.156H145.36v-6.271h-2.744V99.9h-2.787V95.375h7.1Zm-13.588,0v5.269h-4.366V130.89h2.8v-2.357h6.053v4.535Zm4.486,2v3.266h-2.482V135.07ZM93.1,138.336H90.616V135.07H93.1ZM81.513,114.221V95.374h7.1V99.9H85.825v6.968H83.081v6.271H97.54V115.3H83.081v6.271h2.744v6.968h2.787v4.529h-7.1Zm7,12.309v.006h-.686v-6.968H85.085V117.3H99.545V111.14H85.085v-2.265h2.744v-6.968h.686v.006h8.155V107H92.053v-1.7h-2v3.7H101.9v10.429H90.05v3.7h2v-1.7h4.616v5.09H88.515ZM95.1,95.374V90.1h4.366v7.447h-2.8v2.357H90.616V95.374Zm-4.486-2V90.1H93.1v3.266ZM135.343,90.1h2.482v3.266h-2.482Zm2.482,5.269v4.535h-6.053V97.551h-2.8V90.1h4.366v5.269Zm-16.332,6.619V99.555h8.274V107h-3.223v-5.008Zm-7.273,27.154h-3.31V142.3h-3.353v-1.263h-6.1v-2.156h.011V130.89h5.477v4.921H104.9v2h4.05V126.448H119.49v11.367h4.05v-2h-2.047v-4.921h5.477v7.992h.011v2.156h-6.1V142.3h-3.353V129.148Zm-7.273-2.7v2.439H98.674V121.44H101.9v5.008Zm7.273-27.154h3.31V86.141h3.353V87.4h6.1V89.56h-.011v7.992h-5.477V92.63h2.047v-2h-4.05v11.367H108.951V90.627H104.9v2h2.047v4.921h-5.477V89.56h-.011V87.4h6.1V86.141h3.353V99.293Zm-7.273.261v2.439H101.9V107H98.674V99.555Zm0,4.442v3H103.9v-3ZM103.9,121.438h3.048v3H103.9Zm17.595,7.448v-2.439h5.052V121.44h3.223v7.447Zm0-4.442v-3h3.048v3Zm3.05-5.009h-5.052v5.008h-10.54v-5.008H103.9V109.006h5.052V104H119.49v5.008h5.052v10.429Zm0-12.433h-3.048v-3h3.048Zm8.8-18.9h-4.355V85.4h-8.1V84.137h-5.358V97.29h-2.613V84.137h-5.356V85.4h-8.1v2.7H95.1V80.915H133.34ZM90.616,133.067v-4.535h6.053v2.357h2.8v7.447H95.1v-5.269ZM95.1,140.34h4.355v2.7h8.1V144.3h5.356V131.151h2.614V144.3h5.357v-1.263h8.1v-2.7h4.355v7.186H95.1V140.34Zm36.67-13.811v-5.09h4.616v1.7h2v-3.7H126.546V109.006h11.846v-3.7h-2V107h-4.616v-5.09h8.155v-.006h.686v6.968h2.744v2.265H128.9V117.3h14.459v2.265h-2.744v6.968h-.686v-.006h-8.156ZM144.9,78.912h-9.558V69.353ZM133.34,67.559V78.912H95.1V67.559ZM93.1,69.354v9.558H83.54ZM81.537,80.915H93.1V88.1H88.613V93.37h-7.1V80.938ZM79.51,82.941V93.371H69.081ZM67.559,95.374H79.51v37.693H67.559Zm1.523,39.7H79.511V145.5ZM81.513,147.5V135.07h7.1v5.269H93.1v7.186H81.537Zm2.027,2.027H93.1v9.558ZM95.1,160.882V149.53H133.34v11.353Zm40.241-1.8v-9.558H144.9Zm11.562-11.56H135.343v-7.186h4.486v-5.269h7.1V147.5Zm2.027-2.027V135.07H159.36Zm11.951-12.433H148.931V95.374h11.951Z" transform="translate(-35.22 343.78)" fill="url(#linear-gradient)"/>
        <path id="传统纹饰-20" data-name="传统纹饰" d="M134.932,64.22H93.509L64.22,93.509v41.422L93.509,164.22h41.422l29.289-29.289V93.509Zm24.427,29.151H148.93V82.941ZM146.928,80.938V93.371h-7.1V88.1h-4.486V80.916H146.9Zm0,52.129h-7.1v-4.529h2.787V121.57h2.744V115.3H130.9v-2.156H145.36v-6.271h-2.744V99.9h-2.787V95.375h7.1Zm-13.588,0v5.269h-4.366V130.89h2.8v-2.357h6.053v4.535Zm4.486,2v3.266h-2.482V135.07ZM93.1,138.336H90.616V135.07H93.1ZM81.513,114.221V95.374h7.1V99.9H85.825v6.968H83.081v6.271H97.54V115.3H83.081v6.271h2.744v6.968h2.787v4.529h-7.1Zm7,12.309v.006h-.686v-6.968H85.085V117.3H99.545V111.14H85.085v-2.265h2.744v-6.968h.686v.006h8.155V107H92.053v-1.7h-2v3.7H101.9v10.429H90.05v3.7h2v-1.7h4.616v5.09H88.515ZM95.1,95.374V90.1h4.366v7.447h-2.8v2.357H90.616V95.374Zm-4.486-2V90.1H93.1v3.266ZM135.343,90.1h2.482v3.266h-2.482Zm2.482,5.269v4.535h-6.053V97.551h-2.8V90.1h4.366v5.269Zm-16.332,6.619V99.555h8.274V107h-3.223v-5.008Zm-7.273,27.154h-3.31V142.3h-3.353v-1.263h-6.1v-2.156h.011V130.89h5.477v4.921H104.9v2h4.05V126.448H119.49v11.367h4.05v-2h-2.047v-4.921h5.477v7.992h.011v2.156h-6.1V142.3h-3.353V129.148Zm-7.273-2.7v2.439H98.674V121.44H101.9v5.008Zm7.273-27.154h3.31V86.141h3.353V87.4h6.1V89.56h-.011v7.992h-5.477V92.63h2.047v-2h-4.05v11.367H108.951V90.627H104.9v2h2.047v4.921h-5.477V89.56h-.011V87.4h6.1V86.141h3.353V99.293Zm-7.273.261v2.439H101.9V107H98.674V99.555Zm0,4.442v3H103.9v-3ZM103.9,121.438h3.048v3H103.9Zm17.595,7.448v-2.439h5.052V121.44h3.223v7.447Zm0-4.442v-3h3.048v3Zm3.05-5.009h-5.052v5.008h-10.54v-5.008H103.9V109.006h5.052V104H119.49v5.008h5.052v10.429Zm0-12.433h-3.048v-3h3.048Zm8.8-18.9h-4.355V85.4h-8.1V84.137h-5.358V97.29h-2.613V84.137h-5.356V85.4h-8.1v2.7H95.1V80.915H133.34ZM90.616,133.067v-4.535h6.053v2.357h2.8v7.447H95.1v-5.269ZM95.1,140.34h4.355v2.7h8.1V144.3h5.356V131.151h2.614V144.3h5.357v-1.263h8.1v-2.7h4.355v7.186H95.1V140.34Zm36.67-13.811v-5.09h4.616v1.7h2v-3.7H126.546V109.006h11.846v-3.7h-2V107h-4.616v-5.09h8.155v-.006h.686v6.968h2.744v2.265H128.9V117.3h14.459v2.265h-2.744v6.968h-.686v-.006h-8.156ZM144.9,78.912h-9.558V69.353ZM133.34,67.559V78.912H95.1V67.559ZM93.1,69.354v9.558H83.54ZM81.537,80.915H93.1V88.1H88.613V93.37h-7.1V80.938ZM79.51,82.941V93.371H69.081ZM67.559,95.374H79.51v37.693H67.559Zm1.523,39.7H79.511V145.5ZM81.513,147.5V135.07h7.1v5.269H93.1v7.186H81.537Zm2.027,2.027H93.1v9.558ZM95.1,160.882V149.53H133.34v11.353Zm40.241-1.8v-9.558H144.9Zm11.562-11.56H135.343v-7.186h4.486v-5.269h7.1V147.5Zm2.027-2.027V135.07H159.36Zm11.951-12.433H148.931V95.374h11.951Z" transform="translate(102.08 343.78)" fill="url(#linear-gradient)"/>
        <path id="传统纹饰-21" data-name="传统纹饰" d="M134.932,64.22H93.509L64.22,93.509v41.422L93.509,164.22h41.422l29.289-29.289V93.509Zm24.427,29.151H148.93V82.941ZM146.928,80.938V93.371h-7.1V88.1h-4.486V80.916H146.9Zm0,52.129h-7.1v-4.529h2.787V121.57h2.744V115.3H130.9v-2.156H145.36v-6.271h-2.744V99.9h-2.787V95.375h7.1Zm-13.588,0v5.269h-4.366V130.89h2.8v-2.357h6.053v4.535Zm4.486,2v3.266h-2.482V135.07ZM93.1,138.336H90.616V135.07H93.1ZM81.513,114.221V95.374h7.1V99.9H85.825v6.968H83.081v6.271H97.54V115.3H83.081v6.271h2.744v6.968h2.787v4.529h-7.1Zm7,12.309v.006h-.686v-6.968H85.085V117.3H99.545V111.14H85.085v-2.265h2.744v-6.968h.686v.006h8.155V107H92.053v-1.7h-2v3.7H101.9v10.429H90.05v3.7h2v-1.7h4.616v5.09H88.515ZM95.1,95.374V90.1h4.366v7.447h-2.8v2.357H90.616V95.374Zm-4.486-2V90.1H93.1v3.266ZM135.343,90.1h2.482v3.266h-2.482Zm2.482,5.269v4.535h-6.053V97.551h-2.8V90.1h4.366v5.269Zm-16.332,6.619V99.555h8.274V107h-3.223v-5.008Zm-7.273,27.154h-3.31V142.3h-3.353v-1.263h-6.1v-2.156h.011V130.89h5.477v4.921H104.9v2h4.05V126.448H119.49v11.367h4.05v-2h-2.047v-4.921h5.477v7.992h.011v2.156h-6.1V142.3h-3.353V129.148Zm-7.273-2.7v2.439H98.674V121.44H101.9v5.008Zm7.273-27.154h3.31V86.141h3.353V87.4h6.1V89.56h-.011v7.992h-5.477V92.63h2.047v-2h-4.05v11.367H108.951V90.627H104.9v2h2.047v4.921h-5.477V89.56h-.011V87.4h6.1V86.141h3.353V99.293Zm-7.273.261v2.439H101.9V107H98.674V99.555Zm0,4.442v3H103.9v-3ZM103.9,121.438h3.048v3H103.9Zm17.595,7.448v-2.439h5.052V121.44h3.223v7.447Zm0-4.442v-3h3.048v3Zm3.05-5.009h-5.052v5.008h-10.54v-5.008H103.9V109.006h5.052V104H119.49v5.008h5.052v10.429Zm0-12.433h-3.048v-3h3.048Zm8.8-18.9h-4.355V85.4h-8.1V84.137h-5.358V97.29h-2.613V84.137h-5.356V85.4h-8.1v2.7H95.1V80.915H133.34ZM90.616,133.067v-4.535h6.053v2.357h2.8v7.447H95.1v-5.269ZM95.1,140.34h4.355v2.7h8.1V144.3h5.356V131.151h2.614V144.3h5.357v-1.263h8.1v-2.7h4.355v7.186H95.1V140.34Zm36.67-13.811v-5.09h4.616v1.7h2v-3.7H126.546V109.006h11.846v-3.7h-2V107h-4.616v-5.09h8.155v-.006h.686v6.968h2.744v2.265H128.9V117.3h14.459v2.265h-2.744v6.968h-.686v-.006h-8.156ZM144.9,78.912h-9.558V69.353ZM133.34,67.559V78.912H95.1V67.559ZM93.1,69.354v9.558H83.54ZM81.537,80.915H93.1V88.1H88.613V93.37h-7.1V80.938ZM79.51,82.941V93.371H69.081ZM67.559,95.374H79.51v37.693H67.559Zm1.523,39.7H79.511V145.5ZM81.513,147.5V135.07h7.1v5.269H93.1v7.186H81.537Zm2.027,2.027H93.1v9.558ZM95.1,160.882V149.53H133.34v11.353Zm40.241-1.8v-9.558H144.9Zm11.562-11.56H135.343v-7.186h4.486v-5.269h7.1V147.5Zm2.027-2.027V135.07H159.36Zm11.951-12.433H148.931V95.374h11.951Z" transform="translate(376.68 343.78)" fill="url(#linear-gradient)"/>
        <path id="传统纹饰-22" data-name="传统纹饰" d="M134.932,64.22H93.509L64.22,93.509v41.422L93.509,164.22h41.422l29.289-29.289V93.509Zm24.427,29.151H148.93V82.941ZM146.928,80.938V93.371h-7.1V88.1h-4.486V80.916H146.9Zm0,52.129h-7.1v-4.529h2.787V121.57h2.744V115.3H130.9v-2.156H145.36v-6.271h-2.744V99.9h-2.787V95.375h7.1Zm-13.588,0v5.269h-4.366V130.89h2.8v-2.357h6.053v4.535Zm4.486,2v3.266h-2.482V135.07ZM93.1,138.336H90.616V135.07H93.1ZM81.513,114.221V95.374h7.1V99.9H85.825v6.968H83.081v6.271H97.54V115.3H83.081v6.271h2.744v6.968h2.787v4.529h-7.1Zm7,12.309v.006h-.686v-6.968H85.085V117.3H99.545V111.14H85.085v-2.265h2.744v-6.968h.686v.006h8.155V107H92.053v-1.7h-2v3.7H101.9v10.429H90.05v3.7h2v-1.7h4.616v5.09H88.515ZM95.1,95.374V90.1h4.366v7.447h-2.8v2.357H90.616V95.374Zm-4.486-2V90.1H93.1v3.266ZM135.343,90.1h2.482v3.266h-2.482Zm2.482,5.269v4.535h-6.053V97.551h-2.8V90.1h4.366v5.269Zm-16.332,6.619V99.555h8.274V107h-3.223v-5.008Zm-7.273,27.154h-3.31V142.3h-3.353v-1.263h-6.1v-2.156h.011V130.89h5.477v4.921H104.9v2h4.05V126.448H119.49v11.367h4.05v-2h-2.047v-4.921h5.477v7.992h.011v2.156h-6.1V142.3h-3.353V129.148Zm-7.273-2.7v2.439H98.674V121.44H101.9v5.008Zm7.273-27.154h3.31V86.141h3.353V87.4h6.1V89.56h-.011v7.992h-5.477V92.63h2.047v-2h-4.05v11.367H108.951V90.627H104.9v2h2.047v4.921h-5.477V89.56h-.011V87.4h6.1V86.141h3.353V99.293Zm-7.273.261v2.439H101.9V107H98.674V99.555Zm0,4.442v3H103.9v-3ZM103.9,121.438h3.048v3H103.9Zm17.595,7.448v-2.439h5.052V121.44h3.223v7.447Zm0-4.442v-3h3.048v3Zm3.05-5.009h-5.052v5.008h-10.54v-5.008H103.9V109.006h5.052V104H119.49v5.008h5.052v10.429Zm0-12.433h-3.048v-3h3.048Zm8.8-18.9h-4.355V85.4h-8.1V84.137h-5.358V97.29h-2.613V84.137h-5.356V85.4h-8.1v2.7H95.1V80.915H133.34ZM90.616,133.067v-4.535h6.053v2.357h2.8v7.447H95.1v-5.269ZM95.1,140.34h4.355v2.7h8.1V144.3h5.356V131.151h2.614V144.3h5.357v-1.263h8.1v-2.7h4.355v7.186H95.1V140.34Zm36.67-13.811v-5.09h4.616v1.7h2v-3.7H126.546V109.006h11.846v-3.7h-2V107h-4.616v-5.09h8.155v-.006h.686v6.968h2.744v2.265H128.9V117.3h14.459v2.265h-2.744v6.968h-.686v-.006h-8.156ZM144.9,78.912h-9.558V69.353ZM133.34,67.559V78.912H95.1V67.559ZM93.1,69.354v9.558H83.54ZM81.537,80.915H93.1V88.1H88.613V93.37h-7.1V80.938ZM79.51,82.941V93.371H69.081ZM67.559,95.374H79.51v37.693H67.559Zm1.523,39.7H79.511V145.5ZM81.513,147.5V135.07h7.1v5.269H93.1v7.186H81.537Zm2.027,2.027H93.1v9.558ZM95.1,160.882V149.53H133.34v11.353Zm40.241-1.8v-9.558H144.9Zm11.562-11.56H135.343v-7.186h4.486v-5.269h7.1V147.5Zm2.027-2.027V135.07H159.36Zm11.951-12.433H148.931V95.374h11.951Z" transform="translate(239.38 343.78)" fill="url(#linear-gradient)"/>
      </g>
    </g>
    <g id="烟花" transform="translate(6 23)">
      <rect id="矩形_6" data-name="矩形 6" width="36" height="8" rx="4" transform="translate(136 112)" fill="#e3562d"/>
      <rect id="矩形_7" data-name="矩形 7" width="36" height="8" rx="4" transform="translate(76 112)" fill="#e3562d"/>
      <rect id="矩形_8" data-name="矩形 8" width="36" height="8" rx="4" transform="translate(128 128) rotate(90)" fill="#e3562d"/>
      <rect id="矩形_9" data-name="矩形 9" width="36" height="8" rx="4" transform="translate(128 68) rotate(90)" fill="#e3562d"/>
      <rect id="矩形_10" data-name="矩形 10" width="36" height="8" rx="4" transform="translate(92.544 78.887) rotate(45)" fill="#e3562d"/>
      <rect id="矩形_11" data-name="矩形 11" width="36" height="8" rx="4" transform="translate(86.887 147.456) rotate(-45)" fill="#e3562d"/>
      <rect id="矩形_12" data-name="矩形 12" width="36" height="8" rx="4" transform="translate(155.456 153.113) rotate(-135)" fill="#e3562d"/>
      <rect id="矩形_13" data-name="矩形 13" width="36" height="8" rx="4" transform="translate(130 104.343) rotate(-45)" fill="#e3562d"/>
    </g>
    <g id="烟花-2" data-name="烟花" transform="translate(272 219)" opacity="0.66">
      <rect id="矩形_6-2" data-name="矩形 6" width="32" height="8" rx="4" transform="translate(136 112)" fill="#e3562d"/>
      <rect id="矩形_7-2" data-name="矩形 7" width="32" height="8" rx="4" transform="translate(80 112)" fill="#e3562d"/>
      <rect id="矩形_8-2" data-name="矩形 8" width="32" height="8" rx="4" transform="translate(128 128) rotate(90)" fill="#e3562d"/>
      <rect id="矩形_9-2" data-name="矩形 9" width="32" height="8" rx="4" transform="translate(128 72) rotate(90)" fill="#e3562d"/>
      <rect id="矩形_10-2" data-name="矩形 10" width="32" height="8" rx="4" transform="translate(95.373 81.716) rotate(45)" fill="#e3562d"/>
      <rect id="矩形_11-2" data-name="矩形 11" width="32" height="8" rx="4" transform="translate(89.716 144.627) rotate(-45)" fill="#e3562d"/>
      <rect id="矩形_12-2" data-name="矩形 12" width="32" height="8" rx="4" transform="translate(152.627 150.284) rotate(-135)" fill="#e3562d"/>
      <rect id="矩形_13-2" data-name="矩形 13" width="32" height="8" rx="4" transform="translate(130 104.343) rotate(-45)" fill="#e3562d"/>
    </g>
    <g id="烟花-3" data-name="烟花" transform="translate(256 15)" opacity="0.66">
      <rect id="矩形_6-3" data-name="矩形 6" width="28" height="8" rx="4" transform="translate(136 112)" fill="#e3562d"/>
      <rect id="矩形_7-3" data-name="矩形 7" width="28" height="8" rx="4" transform="translate(84 112)" fill="#e3562d"/>
      <rect id="矩形_8-3" data-name="矩形 8" width="28" height="8" rx="4" transform="translate(128 128) rotate(90)" fill="#e3562d"/>
      <rect id="矩形_9-3" data-name="矩形 9" width="28" height="8" rx="4" transform="translate(128 76) rotate(90)" fill="#e3562d"/>
      <rect id="矩形_10-3" data-name="矩形 10" width="28" height="8" rx="4" transform="translate(98.201 84.544) rotate(45)" fill="#e3562d"/>
      <rect id="矩形_11-3" data-name="矩形 11" width="28" height="8" rx="4" transform="translate(92.544 141.799) rotate(-45)" fill="#e3562d"/>
      <rect id="矩形_12-3" data-name="矩形 12" width="28" height="8" rx="4" transform="translate(149.799 147.456) rotate(-135)" fill="#e3562d"/>
      <rect id="矩形_13-3" data-name="矩形 13" width="28" height="8" rx="4" transform="translate(130 104.343) rotate(-45)" fill="#e3562d"/>
    </g>
    <g id="烟花-4" data-name="烟花" transform="translate(-10 294)" opacity="0.42">
      <rect id="矩形_6-4" data-name="矩形 6" width="28" height="8" rx="4" transform="translate(136 112)" fill="#e3562d"/>
      <rect id="矩形_7-4" data-name="矩形 7" width="28" height="8" rx="4" transform="translate(84 112)" fill="#e3562d"/>
      <rect id="矩形_8-4" data-name="矩形 8" width="28" height="8" rx="4" transform="translate(128 128) rotate(90)" fill="#e3562d"/>
      <rect id="矩形_9-4" data-name="矩形 9" width="28" height="8" rx="4" transform="translate(128 76) rotate(90)" fill="#e3562d"/>
      <rect id="矩形_10-4" data-name="矩形 10" width="28" height="8" rx="4" transform="translate(98.201 84.544) rotate(45)" fill="#e3562d"/>
      <rect id="矩形_11-4" data-name="矩形 11" width="28" height="8" rx="4" transform="translate(92.544 141.799) rotate(-45)" fill="#e3562d"/>
      <rect id="矩形_12-4" data-name="矩形 12" width="28" height="8" rx="4" transform="translate(149.799 147.456) rotate(-135)" fill="#e3562d"/>
      <rect id="矩形_13-4" data-name="矩形 13" width="28" height="8" rx="4" transform="translate(130 104.343) rotate(-45)" fill="#e3562d"/>
    </g>
    <g transform="matrix(1, 0, 0, 1, 0, 0)" filter="url(#Path-3)">
      <path id="Path-3-2" data-name="Path-3" d="M208.112,400.186q111.944-48.772,149.294-64.307C428.5,306.308,443.272,301.172,452.9,301c2.118-.037,6.853.487,9.92,2.976a10.784,10.784,0,0,1,3.644,6.932,45.159,45.159,0,0,1,.428,10.078c-3.853,40.479-20.523,138.713-29,184.051-3.589,19.184-10.655,25.617-17.5,26.246-14.866,1.368-26.156-9.825-40.555-19.263-22.531-14.77-35.26-23.964-57.13-38.376-25.275-16.656-8.89-25.81,5.514-40.771,3.77-3.916,69.272-63.495,70.539-68.9.159-.676.306-3.2-1.191-4.526s-3.706-.876-5.3-.514q-3.389.77-107.982,71.372-15.325,10.524-27.762,10.255c-9.141-.2-26.723-5.168-39.794-9.417-16.032-5.211-28.774-7.966-27.664-16.817Q189.934,407.415,208.112,400.186Z" transform="translate(-92.23 -153.89)" fill="#fff4cc" fill-rule="evenodd"/>
    </g>
  </g>
</svg>
